<svg xmlns="http://www.w3.org/2000/svg" xmlns:xlink="http://www.w3.org/1999/xlink" width="306.845" height="306.845" viewBox="0 0 306.845 306.845"><defs><style>.a{fill:#383838;opacity:0.1;}.a,.b,.c{mix-blend-mode:multiply;isolation:isolate;}.b{opacity:0.17;}.b,.c{fill:url(#a);}.c{opacity:0.25;}.d{fill:none;stroke-miterlimit:10;}.e,.f{stroke:none;}</style><linearGradient id="a" x1="0.5" y1="1" x2="0.5" gradientUnits="objectBoundingBox"><stop offset="0" stop-color="#fff" stop-opacity="0"/><stop offset="1"/></linearGradient></defs><g transform="translate(-1130.952 -425)"><circle class="a" cx="153.423" cy="153.423" r="153.423" transform="translate(1130.952 425)"/><g transform="translate(-3.229 -41.619)"><circle class="b" cx="153.423" cy="153.423" r="153.423" transform="translate(1134.181 466.619)"/><circle class="c" cx="135.537" cy="135.537" r="135.537" transform="translate(1152.317 485.504)"/></g><g class="d" transform="translate(225.605 152.78)"><path class="e" d="M1087.078,380.922l70.039-7.754L1115.6,430.108l41.735,56.779-70.069-7.481-28.3,64.533-28.555-64.422-70.039,7.754,41.513-56.941L960.15,373.551l70.069,7.481,28.3-64.533Z"/><path class="f" d="M 1058.561645507812 336.3289794921875 L 1037.545043945312 384.2461242675781 L 1035.192749023438 389.6093444824219 L 1029.369384765625 388.9875793457031 L 977.3419189453125 383.4325561523438 L 1008.330932617188 425.5918884277344 L 1011.799560546875 430.3106994628906 L 1008.349365234375 435.0429382324219 L 977.5247802734375 477.3226928710938 L 1029.530395507812 471.5650939941406 L 1035.351196289062 470.9206237792969 L 1037.724365234375 476.2746276855469 L 1058.927368164062 524.109375 L 1079.943969726562 476.1923828125 L 1082.296264648438 470.8291931152344 L 1088.11962890625 471.450927734375 L 1140.147216796875 477.0059509277344 L 1109.158081054688 434.8465270996094 L 1105.689697265625 430.1277465820312 L 1109.1396484375 425.3954772949219 L 1139.964111328125 383.1157531738281 L 1087.958862304688 388.8733825683594 L 1082.138061523438 389.5178527832031 L 1079.764770507812 384.1638488769531 L 1058.561645507812 336.3289794921875 M 1058.52294921875 316.5000610351562 L 1087.078491210938 380.9219970703125 L 1157.1171875 373.1678466796875 L 1115.604125976562 430.1084289550781 L 1157.3388671875 486.8869934082031 L 1087.270263671875 479.4057312011719 L 1058.966064453125 543.9383544921875 L 1030.41064453125 479.5164794921875 L 960.3717041015625 487.2705993652344 L 1001.885009765625 430.3299865722656 L 960.150146484375 373.5514831542969 L 1030.21875 381.0327758789062 L 1058.52294921875 316.5000610351562 Z"/></g></g></svg>