<svg xmlns="http://www.w3.org/2000/svg" width="86.219" height="129.094" viewBox="0 0 86.219 129.094"><path d="M728.86,502.352a18.751,18.751,0,0,1-1.663-1.267c-.326-.31-.775-.785-.736-1.139.276-2.557.553-5.124,1.051-7.645.36-1.824.072-2.972-1.861-3.622-2.609-.877-3.173-2.461-1.471-4.646,2-2.569,4.385-4.838,6.456-7.357a4.268,4.268,0,0,0,1.009-2.85,16.887,16.887,0,0,1,3.636-12.992c1.407-1.8,2.128-3.579,1.319-6-.815-2.44.28-4.708,1.915-6.576a14.27,14.27,0,0,1,8.715-4.9,5.537,5.537,0,0,0,4.411-2.873c1.268-2.33,2.628-4.618,3.745-7.018.394-.846-.006-2.039.314-2.948.3-.86,1.007-2.13,1.652-2.205a8.291,8.291,0,0,1,4.422.626c.55.269.8,2.268.391,3.08a5.606,5.606,0,0,1-2.8,2.013c-3.281,1.407-4.206,6.463-1.52,8.838.939-.707,1.808-1.824,2.843-2.006.956-.17,2.089.663,3.223,1.083.825-.831.712-1.521-.574-1.974-.892-.314-2.088-.414-2.575-1.049a3.737,3.737,0,0,1-.357-2.792c.082-.363,1.413-.752,2.058-.607A15.023,15.023,0,0,1,765.538,437a13.308,13.308,0,0,1,.24-3.608c.366-1.038,1.2-2.488,2.033-2.64a5.236,5.236,0,0,1,3.565,1.175,2.591,2.591,0,0,1,.485,3.521c-.391.7-.682,1.461-1.145,2.472.732-.212,1.3-.584,1.631-.433a6.735,6.735,0,0,1,2.568,1.693,2.191,2.191,0,0,1-.388,2.14,4.057,4.057,0,0,1-2.717.658c-.961-.13-1.832-.771-2.109.918a5.034,5.034,0,0,0,1.347.2c1.7-.217,2.534.6,2.83,2.18.177.947.547,1.912,1.716,1.259,1.936-1.082,3.2-.336,4.346,1.207a5.889,5.889,0,0,0,.863.787l.5-.234a15.426,15.426,0,0,0-.727-1.972,5.875,5.875,0,0,0-.963-1.047c-.9-.993-1.146-2.256-.116-3.06,1.1-.856,2.325-.426,3.1.843.437.711.9,1.407,1.588,2.481.777-3.113,2.236-5.007,5.155-4.75a3.313,3.313,0,0,1,2.355,1.81c.844,2.538-.723,4.19-2.981,5.587,1.914.509,3.213,1.424,2.67,3.339-.6,2.11-2.383,1.856-4.143,1.568.162,2.053.19,3.983,2.709,4.694.577.162.862,1.26,1.351,1.872a6.044,6.044,0,0,0,1.047.843,3.769,3.769,0,0,0,.263-1.458c-.156-.641-.7-1.184-.869-1.825-.341-1.287-.226-2.527,1.327-2.938,1.407-.372,2.156.372,2.471,1.725.192.827.514,1.623.928,2.9,1.836-2.949,4.167-3.97,6.928-2.532.708.369,1.179,1.98,1.084,2.956-.274,2.834-2.827,2.844-5.126,3.437.551.367,1.094.531,1.257.875.426.9,1.042,1.937.893,2.8a2.6,2.6,0,0,1-2.033,1.479c-.791.006-1.632-.785-2.37-1.336a13.82,13.82,0,0,1-1.523-1.537l-.471.463c.362.465.728.927,1.086,1.4.7.914.932,1.844-.048,2.709-1.144,1.009-.923,2.161-.41,3.349.742,1.716,1.611,1.978,3.176.886a5.148,5.148,0,0,0,2.586-3.865,4.46,4.46,0,0,1,6.619-3.081,3.941,3.941,0,0,1,1.3,3.1c-.078,1-.956,2.53-1.781,2.761-2.763.772-4.7,2.55-6.824,4.271-1.6,1.3-3.7,1.984-5.512,3.04-2.943,1.709-3.156,2.28-2.39,5.616.685,2.983,1.483,5.939.754,9.059a8.783,8.783,0,0,1-7.141,7c-2.054.471-4.158.733-6.2,1.259-2.412.623-3.077,1.652-3.021,4.135a21.708,21.708,0,0,0,4.472,12.281c2.177,3.042,4.7,5.839,6.832,8.91a26.656,26.656,0,0,1,3.5,6.588c.86,2.578.015,4.187-2.466,5.34a48.581,48.581,0,0,1-7.808,2.9,260.432,260.432,0,0,0-37.79,13.54,4.923,4.923,0,0,1-1.508.6c-.763.05-1.782.14-2.245-.28a2.518,2.518,0,0,1-.408-2.176,32.18,32.18,0,0,1,1.84-4.3c2.386-5.036,5.073-9.95,7.13-15.116,2.746-6.9-.256-17.551-6.228-21.958-2.145-1.583-5.08-2.134-7.7-3.018-1.6-.541-3.307-.777-4.946-1.223-2.516-.687-3.118-1.92-2.189-4.4C728.1,504.006,728.484,503.22,728.86,502.352Z" transform="translate(-723.209 -428.248)"/></svg>