<svg xmlns="http://www.w3.org/2000/svg" width="116.477" height="128.672" viewBox="0 0 116.477 128.672"><path d="M802.13,736.915c1.181,1.056,2.409,2.089,3.547,3.212a1.676,1.676,0,0,1,.511,1.347c-.237.683-.846.395-1.422.234a1.3,1.3,0,0,0-1.15.414c-.355.563-1.221,1.052-.622,1.939a2.883,2.883,0,0,0,.306.327c1.492,1.582,1.485,2.109-.089,3.688a14.5,14.5,0,0,1-7.5,4.4c.254.294.524.477.6.72a6.579,6.579,0,0,1,.151,1.217c-.444.041-1.038.286-1.309.089a37.851,37.851,0,0,1-3.7-3.053c-.3-.288-.245-.963-.353-1.459a7.468,7.468,0,0,1,1.388.074,6.476,6.476,0,0,1,1.253.638c0-1.128-.017-2.047,0-2.966a14.842,14.842,0,0,1,2.71-7.841,17.02,17.02,0,0,0,1.147-2.8,30.017,30.017,0,0,0-4.541-1.956c-3.767-.943-7.605-1.618-11.177-3.812-.078.952-.173,1.671-.188,2.392-.048,2.17-.085,4.339-.074,6.508,0,.416.317.827.337,1.247a2.6,2.6,0,0,1-.346.929c-.307-.135-.889-.3-.878-.4.14-1.329-1.034-1.909-1.555-2.848a14.586,14.586,0,0,0-.979-1.326c-.055,1.642-.56,2.966-.021,4.367.092.239-.257.647-.4.977a3.471,3.471,0,0,1-.875-.733c-.251-.419-.252-.994-.522-1.394-1.316-1.954-2.683-3.875-4.039-5.8-.18-.257-.4-.484-.6-.724l-.256.167c.174.321.333.651.524.961,1.87,3.056,3.76,6.1,5.6,9.173a8.8,8.8,0,0,1,.6,1.676,25.429,25.429,0,0,1,1.109,3.346,8.637,8.637,0,0,1-.091,2.7,1.818,1.818,0,0,1-.622,1.042c-1.477,1.226-1.209,2.769-.99,4.391.4,3,.673,6.018,1.024,9.026a6.287,6.287,0,0,0,.391,1.515c.791,2.051,1.51,2.445,3.689,2.527,5.414.2,10.832.368,16.231.788a18.862,18.862,0,0,1,5.236,1.565c1.818.716,2.646,2.235,3.015,4.149.511,2.661-.219,5.192-.526,7.771-.029.245-.165.637-.325.68-1.206.323-1.111,1.333-1.386,2.229-.136.445-.836.717-1.544,1.274l-1.771,2.945c.356.291.9.763,1.474,1.2a20.68,20.68,0,0,1,1.989,1.433c1.066,1.024.931,1.766.3,3.094a11.983,11.983,0,0,0-1.015,3.83c-.2,1.878.13,3.8-.807,5.6a5.433,5.433,0,0,0-.191,1.879c-.062.652-.293,1.213-1.06,1.193-.817-.021-.844-.7-.749-1.237a8.87,8.87,0,0,0-1.225-6.713c-.59-.909-.515-2.236-.812-3.353-.285-1.072-.659-2.12-1.046-3.339-.458.459-.758.763-1.062,1.062a4.15,4.15,0,0,1-3.571,1.483c-.683-.078-1.433.444-2.155.684-.789.26-1.578.519-2.373.759a10.349,10.349,0,0,0-1.558.426,3.749,3.749,0,0,1-3.123.3,2.14,2.14,0,0,0-1.56.091,2.48,2.48,0,0,1-2.452.074,2.655,2.655,0,0,0-2.655.012,4.715,4.715,0,0,1-2.129.119,5.371,5.371,0,0,1-1.157-.386c.5.969.839,1.638,1.18,2.309a14.631,14.631,0,0,1,.89,1.8c.533,1.556.218,2.345-1.239,3.13a7.822,7.822,0,0,0-3.578,3.692,3.659,3.659,0,0,1-3.311,2.285c-1.721.006-3.441.1-5.161.087a3.827,3.827,0,0,1-1.157-.4c.283-.486.452-1.193.874-1.409a7.446,7.446,0,0,1,2.378-.583,2.357,2.357,0,0,0,2.167-1.931c.48-1.8,1.07-3.576,1.579-5.371.391-1.379.168-1.656-1.187-2.106a2.056,2.056,0,0,1-1.055-.947c-1.624-3.189-3.185-6.41-4.783-9.612-1.549-3.1-3.1-6.205-4.686-9.289a17.555,17.555,0,0,0-2.065-3.551,5.783,5.783,0,0,1-1.478-4.552c.364-3.492.868-6.97,1.371-10.446.476-3.291,1.238-6.56,1.44-9.864a4.815,4.815,0,0,0-1.627-4.463c-1.434-1.05-1.544-2.511-1.38-4.209.313-3.223.37-6.471.552-10.068-.437.408-.695.55-.8.766-.7,1.4-1.41,2.808-2.029,4.249-.225.522-.154,1.165-.329,1.718a3.835,3.835,0,0,1-.648.942,3.219,3.219,0,0,1-.629-.953,13.678,13.678,0,0,1-.034-1.526c-.184-1.81-.4-3.617-.607-5.425a1.8,1.8,0,0,0-.086-.435,2.2,2.2,0,0,0-.311-.386c-.868,1.666-1.713,3.256-2.516,4.865-.094.19.1.506.049.74a1.58,1.58,0,0,1-.386.822.709.709,0,0,1-.694-.084,1.266,1.266,0,0,1-.22-.791c-.006-1.286.045-2.573.009-3.859-.005-.192-.34-.426-.57-.554a2.347,2.347,0,0,1-1.035-3.568c.213-.4.374-.825.558-1.24l-.292-.2c-.912.972-1.878,1.9-2.727,2.928a16.956,16.956,0,0,1-5.316,4.222,57.462,57.462,0,0,0-6.886,3.982,19.491,19.491,0,0,1-9.456,3.5,26.858,26.858,0,0,1-11.763-.891c-.6-.206-1.4-.651-1.566-1.162-.3-.919.541-1.5,1.294-1.846a31.119,31.119,0,0,1,9.293-2.84,11.435,11.435,0,0,1,2.229-.22,2.617,2.617,0,0,0,2.759-1.81c.281-.628.643-.867,1.3-.679a27.2,27.2,0,0,0,3.446.919,3.759,3.759,0,0,0,2.422-.265,23.077,23.077,0,0,0,3.893-3.326c1.275-1.358,2.335-2.917,3.492-4.387a6.809,6.809,0,0,1,1.207-1.468c1.913-1.337,2.542-3.41,3.377-5.41a26.324,26.324,0,0,1,2.293-4.353,2.159,2.159,0,0,0-.132-2.759c-2.085-2.893-4.85-4.268-8.442-3.589-2.492.472-4.991.946-7.445,1.584-3.8.987-7.533,1.88-11.437.408a8.93,8.93,0,0,1-5.989-6.96,2.174,2.174,0,0,1,.131-1.276,37.291,37.291,0,0,1,14.373-16.221,18.777,18.777,0,0,1,9.082-2.963,65.152,65.152,0,0,1,9.613.241c5.147.538,8.15,3.855,9.924,8.461.887,2.3,1.675,4.641,2.545,6.95a10.761,10.761,0,0,0,.83,1.472l.36-.087c.114-.8.241-1.589.336-2.386.044-.369-.1-.809.056-1.11.921-1.808.7-3.757.846-5.676.25-3.314,3.8-7.065,7.849-6.319,1.614.3,3.242.562,4.821.994,2.349.641,3.759,2.49,5.109,4.345a1.2,1.2,0,0,1-.081,1,1.621,1.621,0,0,1-.777.78c-1.537.542-1.329,1.733-1.191,2.929.1.854.193,1.71.246,2.568.082,1.309-.064,1.425-1.02,1.261-.631.963-1.188,1.8-1.731,2.654a1.59,1.59,0,0,0-.193.5c-.416,1.817-1.3,2.314-3.078,1.719-.169-.056-.337-.117-.518-.181-.118,1.358,0,1.459,1.242,1.514a3.415,3.415,0,0,0,2.969-1.3,22.89,22.89,0,0,0,2.239-3.461c1.04-1.985,1.9-4.065,2.924-6.059,3.172-6.179,8.178-9.39,15.156-10.22,6.619-.787,12.894.361,19.156,2.035,3.53.943,6.985,2.178,10.45,3.35,1.349.456,1.47.9.74,2.065-2.5,3.986-5.49,7.472-9.845,9.559-1.112.533-2.186,1.144-3.272,1.729a42.958,42.958,0,0,1-13.432,4.51,44.241,44.241,0,0,0-7.474,2.324,8.043,8.043,0,0,0-2.434,1.56c-1.582,1.371-3.071,2.849-4.624,4.255a1.059,1.059,0,0,0-.327,1.347,12.767,12.767,0,0,0,5.25,6.89c2.748,1.733,5.5,3.464,8.274,5.15a3.544,3.544,0,0,0,3.321.311c1.446-.574,2.862-.683,3.8.981.117.207.475.319.744.394a1.661,1.661,0,0,1,1.254,2.54A18.641,18.641,0,0,1,802.13,736.915Zm-1.924.033c-.568.293-1.3.428-1.523.84a3.4,3.4,0,0,0-.4,2.168c.093.428.785,1.284,1.562.636a4.712,4.712,0,0,0,1.335-1.742c.115-.283-.431-.832-.666-1.267C800.388,737.359,800.288,737.122,800.206,736.948Z" transform="translate(-706.078 -685.286)"/></svg>