<svg xmlns="http://www.w3.org/2000/svg" width="84.303" height="116.055" viewBox="0 0 84.303 116.055"><g transform="translate(-196.614 -666.547)"><path d="M275.413,774.078a15.17,15.17,0,0,1-4.792-6.3c-3.378-8.769-7.112-17.4-10.455-26.183a12.171,12.171,0,0,0-6.937-7.294q3.071-7.4,6.145-14.813c2.8-6.78,5.585-13.568,8.416-20.337a1.559,1.559,0,0,1,1.04-.852,3.013,3.013,0,0,0,2.918-2.181c.283-1.313.818-3.1-1.19-3.823.635-1.831.455-2.014-2.529-2.768-1.159,1.543-2.253,3.055-3.412,4.515a5.166,5.166,0,0,1-1.683,1.623Q254.7,699.27,246.39,702.7a3.8,3.8,0,0,1-2.2.138c-3.276-.782-6.532-1.656-9.787-2.527-2.264-.606-4.514-1.259-6.713-1.876-.233-2.459-.192-2.51,1.983-2.557.585-.013,1.172.025,1.752-.029,1.584-.148,2.075-.784,2.21-2.385a7.915,7.915,0,0,1,.734-1.836c.2-.534.331-1.089.556-1.85l1.666-.5c-.687-1.086-1.279-2.042-1.892-2.985s-1.089-1.717-.024-2.812a1.833,1.833,0,0,0-.219-2.992c-.8-.617-1.4-1.482-2.159-2.164-1.6-1.438-2.786-3.337-5.06-4a11.939,11.939,0,0,1-2.787-1.825,30.221,30.221,0,0,0,2.271-2.006,1.585,1.585,0,0,0,.432-1.217,3.82,3.82,0,0,0-3.779-2.717c-1.266,0-2.532.031-3.8,0-4.576-.109-7.3,2.573-9.412,6.2-1.164,2-1.069,4.194-.973,6.372a13.768,13.768,0,0,0,.507,4.55,17.268,17.268,0,0,1,1.413,8.184c-.048.58.017,1.169-.01,1.752-.056,1.164.867,1.361,1.383.863.8-.769,1.941-1.394,1.85-2.9-.131-2.183-.022-4.38-.029-6.571,0-.763.069-1.411,1.041-1.136.824,2.894,4.031,4.578,3.788,7.982l-2.667-.9a15.424,15.424,0,0,0,.02,2.414c.371,2.117-.946,3.625-2.11,4.931a14.685,14.685,0,0,0-3.588,5.457c-1.478,4.783-3.356,9.442-4.8,14.234-1.024,3.407-1.63,6.943-2.372,10.432-.752,3.536-1.406,7.092-2.176,10.624-.331,1.515-.379,3.259-2.4,3.785-.455.118-1.136.645-1.142.994-.029,1.757-.855,3.738.865,4.894-.066.414-.134.816-.2,1.213a23.329,23.329,0,0,0,36.741,26.9c13.019-.092,26.039-.041,39.059-.038.757,0,1.775.229,1.885-.8A2.557,2.557,0,0,0,275.413,774.078ZM208.5,728.292a13.8,13.8,0,0,1,.889-3.316c1.387-3.7,2.834-7.387,4.266-11.075.05-.127.183-.22.563-.657.48,2.069.92,3.824,1.287,5.594.381,1.84.729,3.689,1,5.547a1.424,1.424,0,0,1-.5,1.146c-1.922,1.3-3.871,2.557-5.866,3.737C208.91,729.995,208.357,729.677,208.5,728.292Zm41.844,5.294L230.4,727.3c.776-3.016,1.469-5.862,2.269-8.679A3.764,3.764,0,0,1,233.8,717.1c.416-.389,1.062-.535,1.469-.93,1.772-1.72,2.381-2.89.86-4.848-.518-.667-.934-1.414-1.4-2.124l.237-.465c1.7.216,3.409.419,5.11.652,1.582.217,3.154.578,4.741.651a4.694,4.694,0,0,0,2.3-.72c5.173-2.851,10.317-5.752,15.473-8.634.21-.117.442-.193.878-.38Z" transform="translate(0)"/><path d="M295.789,695.989c1.919.878,3.871,1.682,5.788,2.563,2.29,1.052,2.534,1.007,4.124-1.134l-11.332-4.847C293.613,695.4,293.3,694.85,295.789,695.989Z" transform="translate(-29.232 -7.825)"/><path d="M300,680.471l-.382-3.027-2.529,2.361-.974,7.671,1.911.478Z" transform="translate(-29.922 -3.277)"/><path d="M311.714,686.632l-4.3,6.433,1.623,1.116,5.1-5.809.1-3.458Z" transform="translate(-33.318 -5.523)"/><path d="M307.118,684.244l-.02-3.84-2.618,2.209-2.563,7.25,1.632.776Z" transform="translate(-31.665 -4.167)"/></g></svg>