<svg xmlns="http://www.w3.org/2000/svg" width="133.522" height="109.078" viewBox="0 0 133.522 109.078"><path d="M539.124,785.992c-.412-.05-.825-.089-1.235-.152a1.14,1.14,0,0,1-1.141-1.083,6.328,6.328,0,0,1-.023-1.6,7.022,7.022,0,0,1,1.3-3.312,3.114,3.114,0,0,1,2.235-1.369A16.333,16.333,0,0,0,542.55,778a2.521,2.521,0,0,0,2.043-2.37,37.015,37.015,0,0,0,.175-8.06,3.733,3.733,0,0,0-1.82-2.83,9.828,9.828,0,0,0-4.7-1.376c-3.015-.232-6.034-.4-9.049-.635A16.554,16.554,0,0,1,523.1,761.5a34.768,34.768,0,0,1-3.233-1.988c-.719-.455-1.409-.957-2.145-1.383-.619-.359-.857-.25-1.219.366a4.5,4.5,0,0,0-.575,2.031,12.115,12.115,0,0,0,1.4,6.895,4.462,4.462,0,0,0,.467.75,2.391,2.391,0,0,1,.393,2.543,8.84,8.84,0,0,1-2.515,3.834c-1.532,1.309-3.122,2.56-4.566,3.96a32.757,32.757,0,0,0-3.283,3.768,4.028,4.028,0,0,1-3.81,1.539c-1.126-.066-2.254-.1-3.381-.138-1.873-.064-3.748-.088-5.618-.2a4.254,4.254,0,0,1-1.567-.519,1.162,1.162,0,0,1-.638-1.609,7.993,7.993,0,0,1,2.833-3.78,1.757,1.757,0,0,1,1.021-.29c.832.021,1.663.118,2.491.215a3.731,3.731,0,0,0,3.047-.916,23.708,23.708,0,0,0,5.4-7.024,2.923,2.923,0,0,0,.074-2.494c-1.314-3.625-3.608-6.633-5.913-9.645-1.012-1.322-2.007-2.662-2.925-4.051a8.681,8.681,0,0,1-1.35-3.743c-.122-.959-.351-1.16-1.305-1.208a24.566,24.566,0,0,0-6.377.521c-3.869.831-7.713,1.781-11.566,2.688q-1.42.334-2.828.714a.66.66,0,0,0-.555.887,32.93,32.93,0,0,1,.709,6.57c.044.833.117,1.669.086,2.5a5.93,5.93,0,0,0,.749,3.03c.848,1.633,1.616,3.307,2.4,4.972a.89.89,0,0,1,.091.627c-.876,2.027-.893,4.2-1.1,6.337-.082.829-.194,1.656-.34,2.476a3.116,3.116,0,0,1-1.354,2.024,8.9,8.9,0,0,1-4.855,1.517c-.678.037-1.357.044-2.031.1a1.03,1.03,0,0,0-.636.262,6.627,6.627,0,0,1-5.61,2.2c-2.463-.107-4.929-.147-7.39-.272a2.948,2.948,0,0,1-2.183-1.086.834.834,0,0,1-.151-.621c.1-.473.3-.925.423-1.395a5.591,5.591,0,0,1,5.473-4.01c.608,0,1.217-.047,1.824-.04a1.592,1.592,0,0,0,1.424-.8,12.205,12.205,0,0,0,1.427-3.45c.7-2.414.224-4.759-.372-7.092A67.048,67.048,0,0,0,459.1,755.2c-.557-1.187-.91-2.468-1.388-3.695a6.473,6.473,0,0,0-.724-1.434c-.557-.774-1.179-1.5-1.8-2.229-.108-.128-.378-.266-.48-.215a.725.725,0,0,0-.3.49c-.064.392-.043.8-.1,1.192s-.165.794-.281,1.336c-.53-.692-.352-1.536-1.014-2.06l-1.214,2.639-.213-.019a5.2,5.2,0,0,1-.307-.668,18.079,18.079,0,0,0-.666-2.243,21.561,21.561,0,0,0-1.4-2.358,1.944,1.944,0,0,0-.4-.342l-1.321,1.659-.17-.049a5.288,5.288,0,0,1-.132-.883,6.2,6.2,0,0,0-.725-2.85c-.7-1.416-1.375-2.843-2.088-4.322-.254.228-.519.487-.806.72-.525.425-1.053.849-1.6,1.239-.13.092-.355.053-.536.075a1.468,1.468,0,0,1-.045-.54c.833-2.616.278-5.2-.156-7.786a2.153,2.153,0,0,0-.119-.4c-.184-.483-.38-.543-.833-.294-.47.258-.941.516-1.427.739a3.4,3.4,0,0,1-.762.13,5.669,5.669,0,0,1,.313-.909c1.423-2.518,1.377-5.2.835-7.91a12.721,12.721,0,0,1,1.177-7.845,9.728,9.728,0,0,1,2.55-3.067,1.22,1.22,0,0,0,.418-.942q.079-1.9.263-3.793c.106-1.087-.134-1.392-1.214-1.435a5.783,5.783,0,0,0-3.407.931,5.227,5.227,0,0,1-3.87.607,1.126,1.126,0,0,1-.724-.589,18.964,18.964,0,0,1-1.032-3.1,5.079,5.079,0,0,1,.188-1.942.674.674,0,0,0-.231-.763c-.511-.444-1-.919-1.482-1.391a2.213,2.213,0,0,1-.662-2.236,5.764,5.764,0,0,0,.1-3.026,2.235,2.235,0,0,1,.573-1.889,4.236,4.236,0,0,1,2.02-1.506c1.112-.393,2.262-.678,3.361-1.1a30.492,30.492,0,0,0,2.966-1.382.921.921,0,0,0,.392-.67,2.1,2.1,0,0,1,.979-1.7c.848-.573,1.734-1.089,2.6-1.637.616-.39,1.232-.783,1.834-1.194a.69.69,0,0,0,.266-.983,2.455,2.455,0,0,1,.549-3.118,6.686,6.686,0,0,1,3.023-1.781c1.633-.471,3.335-.719,4.94-1.26a12.407,12.407,0,0,1,5.921-.263,13.815,13.815,0,0,1,6.106,2.775,13.055,13.055,0,0,0,2.634,1.554,6.931,6.931,0,0,1,3.883,3.591c.581,1.319,1.173,2.633,1.759,3.949a8.7,8.7,0,0,0,2.758,3.725,2.6,2.6,0,0,1,.357.383l-.086.117-1.908-.852-.1.176a2.229,2.229,0,0,0,1.344,1.312,18.849,18.849,0,0,0,1.844.58c-.256.481-.522.946-.751,1.428a.707.707,0,0,0-.063.546c1.2,1.952,1.318,4.179,1.662,6.353.2,1.251.436,2.5.7,3.734a4.077,4.077,0,0,0,1.312,2.32,1.72,1.72,0,0,1,.263.321c.027.037.022.1.057.292a7.212,7.212,0,0,1-1.167-.158c-.462-.141-.893-.382-1.345-.56-.477-.189-.611-.079-.532.426a4.524,4.524,0,0,0,1.584,2.8,17.061,17.061,0,0,0,7.246,3.843,91.533,91.533,0,0,1,11.23,3.148,27.357,27.357,0,0,1,3.764,1.648,11.877,11.877,0,0,0,5.039,1.532,26.816,26.816,0,0,1,11.809,4.084c1.331.786,2.619,1.642,3.918,2.48a13.586,13.586,0,0,1,4.2,4.961,4.149,4.149,0,0,0,.769,1.031,26.064,26.064,0,0,0,7.051,4.581,8.892,8.892,0,0,0,5.479.383,4.708,4.708,0,0,0,3.281-4.149,13.18,13.18,0,0,0-1.225-6.128c-.985-2.259-2.081-4.47-3.088-6.721a36.753,36.753,0,0,1-1.771-4.338,9.583,9.583,0,0,1,1.289-8.788,4.892,4.892,0,0,1,4.014-2.095c.764-.015,1.528-.047,2.292-.084a3.6,3.6,0,0,1,2.767,1c1.049,1.011,2.08,2.046,3.047,3.136a2.052,2.052,0,0,0,1.748.83,2.041,2.041,0,0,1,.26.007c.788.056,1.641-.128,2.316.415a6.339,6.339,0,0,1,2.217,2.837c.208.608.406,1.219.625,1.823a30.062,30.062,0,0,0,1.127,2.976,19.761,19.761,0,0,0,1.477,2.262,2.2,2.2,0,0,1,.383.714l-1.433-.381c.009.729.114.81,2.511,1.96-.252.4.016.561.344.711s.612.322.918.485v.208c-.219.045-.437.1-.657.134a15.437,15.437,0,0,1-5.731-.46,10.167,10.167,0,0,1-7.616-6.171c-.872-2.068-1.092-4.135.426-6.061a.939.939,0,0,0,0-1.159,6.338,6.338,0,0,0-8.143-2.437A3.656,3.656,0,0,0,540.8,713a11.133,11.133,0,0,0,1.062,6.639c.255.472.442.981.664,1.471,1.629,3.608,3.282,7.206,4.882,10.826a11.555,11.555,0,0,1,.9,6.923,7.3,7.3,0,0,1-5.525,5.7,12.725,12.725,0,0,1-7.9-.868,8.162,8.162,0,0,0-.978-.336c.139.346.212.554.3.753a19.778,19.778,0,0,0,3.947,5.657,29.375,29.375,0,0,0,10.512,6.507c1.15.444,2.317.845,3.478,1.256a2.106,2.106,0,0,1,1.477,1.73,10.069,10.069,0,0,1,.207,2.016c-.083,2.047-.237,4.092-.363,6.137a53.449,53.449,0,0,0,.09,10.514,4.169,4.169,0,0,1-1.112,3.576c-.853.957-1.618,2-2.375,3.035a2.119,2.119,0,0,1-1.542.943c-.622.07-1.242.148-1.864.211-1.053.107-2.106.205-3.159.307Z" transform="translate(-431.157 -676.914)"/></svg>