<svg xmlns="http://www.w3.org/2000/svg" width="195.228" height="195.228" viewBox="0 0 195.228 195.228"><defs><style>.a{fill:#7c6eab;opacity:0.46;}</style></defs><g transform="translate(-429.71 -634.591)"><circle class="a" cx="97.614" cy="97.614" r="97.614" transform="translate(429.71 634.591)"/><path d="M566.923,814.077c-.518-.063-1.038-.112-1.553-.191a1.433,1.433,0,0,1-1.435-1.362,7.953,7.953,0,0,1-.029-2.016,8.828,8.828,0,0,1,1.631-4.165,3.915,3.915,0,0,1,2.811-1.721,20.539,20.539,0,0,0,2.883-.594,3.17,3.17,0,0,0,2.569-2.98,46.55,46.55,0,0,0,.22-10.135,4.694,4.694,0,0,0-2.289-3.559,12.357,12.357,0,0,0-5.913-1.73c-3.791-.292-7.588-.5-11.379-.8-2.613-.206-5.264-.383-7.662-1.553a43.745,43.745,0,0,1-4.065-2.5c-.9-.572-1.772-1.2-2.7-1.739-.779-.451-1.078-.314-1.533.46a5.656,5.656,0,0,0-.723,2.554,15.235,15.235,0,0,0,1.765,8.67,5.608,5.608,0,0,0,.587.943,3.006,3.006,0,0,1,.494,3.2,11.116,11.116,0,0,1-3.162,4.821c-1.927,1.646-3.926,3.219-5.742,4.98a41.177,41.177,0,0,0-4.128,4.738,5.066,5.066,0,0,1-4.791,1.935c-1.416-.083-2.834-.124-4.251-.173-2.355-.081-4.713-.111-7.064-.257a5.349,5.349,0,0,1-1.971-.652,1.461,1.461,0,0,1-.8-2.024,10.05,10.05,0,0,1,3.562-4.753,2.21,2.21,0,0,1,1.284-.365c1.046.027,2.091.148,3.132.27a4.692,4.692,0,0,0,3.831-1.152A29.812,29.812,0,0,0,527.3,793.4a3.675,3.675,0,0,0,.093-3.136c-1.652-4.559-4.537-8.341-7.435-12.128-1.273-1.662-2.524-3.348-3.678-5.094a10.918,10.918,0,0,1-1.7-4.707c-.154-1.206-.441-1.459-1.641-1.519a30.889,30.889,0,0,0-8.019.655c-4.865,1.045-9.7,2.239-14.544,3.38q-1.785.42-3.556.9a.83.83,0,0,0-.7,1.116,41.414,41.414,0,0,1,.892,8.262c.055,1.048.147,2.1.108,3.144a7.456,7.456,0,0,0,.942,3.81c1.066,2.053,2.032,4.159,3.021,6.252a1.119,1.119,0,0,1,.115.789c-1.1,2.549-1.123,5.278-1.388,7.969-.1,1.042-.244,2.083-.428,3.114a3.919,3.919,0,0,1-1.7,2.545,11.191,11.191,0,0,1-6.105,1.907c-.852.046-1.706.055-2.554.13a1.3,1.3,0,0,0-.8.329,8.333,8.333,0,0,1-7.054,2.771c-3.1-.135-6.2-.185-9.293-.342a3.707,3.707,0,0,1-2.745-1.365,1.049,1.049,0,0,1-.19-.781c.126-.595.377-1.163.532-1.754a7.031,7.031,0,0,1,6.882-5.043c.765,0,1.53-.059,2.294-.05a2,2,0,0,0,1.791-1.008,15.349,15.349,0,0,0,1.794-4.338c.88-3.035.282-5.984-.468-8.918a84.308,84.308,0,0,0-5.465-14.926c-.7-1.493-1.144-3.1-1.745-4.646a8.135,8.135,0,0,0-.91-1.8c-.7-.973-1.483-1.888-2.26-2.8-.136-.161-.475-.335-.6-.27a.912.912,0,0,0-.371.616c-.081.493-.054,1-.124,1.5s-.207,1-.353,1.68c-.667-.87-.442-1.931-1.275-2.59l-1.527,3.318-.268-.024a6.544,6.544,0,0,1-.386-.84,22.731,22.731,0,0,0-.838-2.821,27.1,27.1,0,0,0-1.755-2.965,2.444,2.444,0,0,0-.5-.43l-1.661,2.086-.214-.061a6.661,6.661,0,0,1-.166-1.11,7.8,7.8,0,0,0-.912-3.584c-.878-1.781-1.729-3.575-2.625-5.435-.319.287-.653.613-1.014.9-.66.534-1.324,1.067-2.016,1.558-.164.116-.446.067-.674.094a1.848,1.848,0,0,1-.057-.679c1.047-3.289.35-6.538-.2-9.791a2.707,2.707,0,0,0-.15-.5c-.232-.607-.478-.683-1.048-.37-.591.324-1.183.649-1.794.929a4.269,4.269,0,0,1-.958.164,7.119,7.119,0,0,1,.394-1.143c1.789-3.167,1.731-6.541,1.05-9.947a16,16,0,0,1,1.48-9.865,12.233,12.233,0,0,1,3.206-3.857,1.534,1.534,0,0,0,.526-1.184q.1-2.388.331-4.769c.133-1.367-.168-1.751-1.527-1.8a7.273,7.273,0,0,0-4.284,1.171,6.572,6.572,0,0,1-4.867.763,1.416,1.416,0,0,1-.91-.74,23.85,23.85,0,0,1-1.3-3.9,6.386,6.386,0,0,1,.237-2.442.848.848,0,0,0-.29-.959c-.643-.558-1.253-1.155-1.864-1.749a2.783,2.783,0,0,1-.832-2.812,7.249,7.249,0,0,0,.12-3.8,2.811,2.811,0,0,1,.72-2.375,5.328,5.328,0,0,1,2.54-1.894c1.4-.494,2.845-.853,4.227-1.385a38.346,38.346,0,0,0,3.73-1.738,1.159,1.159,0,0,0,.493-.842,2.636,2.636,0,0,1,1.231-2.134c1.066-.72,2.181-1.369,3.269-2.059.775-.49,1.549-.984,2.306-1.5a.867.867,0,0,0,.334-1.236,3.087,3.087,0,0,1,.69-3.921,8.406,8.406,0,0,1,3.8-2.24c2.053-.592,4.193-.9,6.212-1.584a15.6,15.6,0,0,1,7.446-.331,17.372,17.372,0,0,1,7.678,3.49,16.42,16.42,0,0,0,3.312,1.954,8.715,8.715,0,0,1,4.883,4.515c.731,1.658,1.475,3.311,2.212,4.966a10.946,10.946,0,0,0,3.468,4.684,3.265,3.265,0,0,1,.449.481l-.108.147-2.4-1.071-.121.221a2.8,2.8,0,0,0,1.69,1.65,23.719,23.719,0,0,0,2.319.73c-.322.605-.657,1.189-.944,1.8a.89.89,0,0,0-.079.687c1.513,2.454,1.657,5.255,2.09,7.989.249,1.573.548,3.14.885,4.7a5.126,5.126,0,0,0,1.65,2.917,2.165,2.165,0,0,1,.331.4c.034.047.027.123.072.367a9.075,9.075,0,0,1-1.467-.2c-.581-.178-1.123-.48-1.691-.7-.6-.237-.768-.1-.669.536a5.689,5.689,0,0,0,1.992,3.518,21.454,21.454,0,0,0,9.112,4.832,115.1,115.1,0,0,1,14.122,3.958,34.406,34.406,0,0,1,4.733,2.073,14.936,14.936,0,0,0,6.337,1.927c5.415.381,10.252,2.418,14.85,5.135,1.673.988,3.293,2.065,4.927,3.119a17.083,17.083,0,0,1,5.284,6.239,5.218,5.218,0,0,0,.967,1.3,32.774,32.774,0,0,0,8.866,5.76,11.182,11.182,0,0,0,6.89.482c2.153-.455,3.983-2.911,4.126-5.217a16.573,16.573,0,0,0-1.541-7.706c-1.238-2.841-2.617-5.621-3.883-8.451a46.231,46.231,0,0,1-2.227-5.455,12.05,12.05,0,0,1,1.621-11.051,6.152,6.152,0,0,1,5.047-2.634c.961-.019,1.922-.059,2.882-.106a4.523,4.523,0,0,1,3.479,1.259c1.319,1.271,2.616,2.573,3.832,3.943a2.58,2.58,0,0,0,2.2,1.044,2.551,2.551,0,0,1,.327.009c.991.07,2.063-.161,2.913.522a7.972,7.972,0,0,1,2.788,3.567c.261.765.511,1.533.786,2.293a37.789,37.789,0,0,0,1.417,3.742,24.859,24.859,0,0,0,1.857,2.845,2.77,2.77,0,0,1,.481.9l-1.8-.479c.011.917.143,1.018,3.157,2.465-.317.508.02.705.433.894.4.18.77.4,1.154.61v.262c-.275.057-.549.126-.826.168a19.41,19.41,0,0,1-7.207-.579,12.785,12.785,0,0,1-9.577-7.76c-1.1-2.6-1.373-5.2.536-7.621a1.182,1.182,0,0,0,0-1.458,7.97,7.97,0,0,0-10.24-3.064,4.6,4.6,0,0,0-2.717,3.552,14,14,0,0,0,1.335,8.349c.32.594.556,1.233.835,1.85,2.049,4.537,4.127,9.061,6.139,13.614a14.53,14.53,0,0,1,1.135,8.705c-.64,3.426-3.664,6.657-6.947,7.163-3.39.522-6.757.51-9.935-1.092a10.275,10.275,0,0,0-1.23-.423c.175.435.267.7.383.947a24.871,24.871,0,0,0,4.963,7.114,36.939,36.939,0,0,0,13.219,8.182c1.446.558,2.913,1.062,4.374,1.58a2.648,2.648,0,0,1,1.857,2.176,12.662,12.662,0,0,1,.261,2.535c-.1,2.574-.3,5.145-.456,7.717a67.207,67.207,0,0,0,.113,13.221,5.242,5.242,0,0,1-1.4,4.5c-1.073,1.2-2.035,2.511-2.986,3.816a2.664,2.664,0,0,1-1.939,1.186c-.782.088-1.562.186-2.344.265-1.324.135-2.648.258-3.972.386Z" transform="translate(11.528 -31)"/></g></svg>