<svg xmlns="http://www.w3.org/2000/svg" width="195.228" height="195.228" viewBox="0 0 195.228 195.228"><defs><style>.a{opacity:0.06;}</style></defs><g transform="translate(-433.934 -387.871)"><circle class="a" cx="97.614" cy="97.614" r="97.614" transform="translate(433.934 387.871)"/><g transform="translate(11.528 -31)"><path d="M551.879,582.621a14.322,14.322,0,0,1-4.5,1.472,30.788,30.788,0,0,1-5.009.442,34.852,34.852,0,0,1-16.264-3.984,6.018,6.018,0,0,0-.88-.44,72.656,72.656,0,0,0,9.066,9.25l-1.773,1.967c-1.445-1.218-2.837-2.438-4.278-3.6a22.175,22.175,0,0,1-3.211-3.941,24.03,24.03,0,0,0-1.963-2.239,5.046,5.046,0,0,0-7.115-.053,25.132,25.132,0,0,0-3.541,4.453,8.1,8.1,0,0,1-1.446,1.528c-1.472,1.291-2.976,2.548-4.5,3.848l-1.777-1.97a73.782,73.782,0,0,0,9.082-9.246,34,34,0,0,1-13.033,4.163,25.224,25.224,0,0,1-13.65-1.571c.44-.358.783-.649,1.139-.925a33.04,33.04,0,0,1,8.269-4.984,19.793,19.793,0,0,1,13.449-.261c4.87,1.574,9.792,1.462,14.749,1.026a26.139,26.139,0,0,0,4.327-1.071,23.81,23.81,0,0,1,9.2-.772,20.4,20.4,0,0,1,8.689,3.361C548.556,580.166,550.135,581.374,551.879,582.621Z"/><path d="M482.972,454.545c0,1.008.045,1.977-.009,2.941a34.584,34.584,0,0,1-1.074,7.131,20.827,20.827,0,0,1-7.425,10.9,30.986,30.986,0,0,1-5.763,3.63c-.945.465-1.373.178-1.3-.884a24.481,24.481,0,0,1,2.216-8.147,37.08,37.08,0,0,1,6.44-10.247,22.959,22.959,0,0,1,6.382-5.086C482.619,454.691,482.809,454.618,482.972,454.545Z"/><path d="M557.23,475.791a18.047,18.047,0,0,1,5.3,1.911,35.813,35.813,0,0,1,13.933,13.756,25.5,25.5,0,0,1,1.661,3.764c.3.766-.123,1.212-.918,1.037a27.166,27.166,0,0,1-12.4-5.868,20.574,20.574,0,0,1-5.6-8.277c-.789-2.044-1.447-4.138-2.164-6.21Z"/><path d="M556.078,454.437c1.186.79,2.426,1.511,3.549,2.382A30.953,30.953,0,0,1,567.9,467.11a32.49,32.49,0,0,1,3.4,9.094,18.242,18.242,0,0,1,.265,2.392.66.66,0,0,1-1.025.679c-5.834-2.875-10.607-6.813-12.971-13.115a27.712,27.712,0,0,1-1.453-7.232c-.134-1.44-.179-2.888-.264-4.332Z"/><path d="M463.6,457.884a43.166,43.166,0,0,1,3.294,8.6,20.537,20.537,0,0,1-1.836,14.73,58.182,58.182,0,0,1-3.205,5.214c-.522.811-1.1.721-1.49-.177a23.492,23.492,0,0,1-1.685-7.8,37.867,37.867,0,0,1,.9-11.839,23.683,23.683,0,0,1,3.506-8.039C463.228,458.367,463.38,458.176,463.6,457.884Z"/><path d="M481.821,475.812a48.413,48.413,0,0,1-2.845,8.1,20.353,20.353,0,0,1-9.049,9.421,30.39,30.39,0,0,1-8.054,2.9c-.921.2-1.286-.189-1.012-1.081a22.128,22.128,0,0,1,3.434-6.508,37.106,37.106,0,0,1,10.067-9.752,21.181,21.181,0,0,1,7.175-3.052C481.607,475.827,481.679,475.826,481.821,475.812Z"/><path d="M575.386,457.913a19.285,19.285,0,0,1,2.73,4.785,30.433,30.433,0,0,1,2.237,11.8,56.921,56.921,0,0,1-.507,7.239,25.527,25.527,0,0,1-1.255,4.5c-.306.924-.9.959-1.484.18a27.618,27.618,0,0,1-5.311-11.432,19.081,19.081,0,0,1,.648-9.785c.785-2.329,1.794-4.582,2.706-6.867A4.691,4.691,0,0,1,575.386,457.913Z"/><path d="M568.723,575.822a18.44,18.44,0,0,1-5.4,1.892,32.949,32.949,0,0,1-13.265-.287,27.949,27.949,0,0,1-7.624-2.584,15.03,15.03,0,0,1-1.46-.9.643.643,0,0,1,.089-1.208c4.994-2.532,10.2-3.881,15.836-2.821a23,23,0,0,1,7.574,3.161C565.879,573.917,567.229,574.85,568.723,575.822Z"/><path d="M454.645,563.9c4.008-1.747,7.94-3.279,12.253-3.382a20.458,20.458,0,0,1,9.2,2.073,30.007,30.007,0,0,1,6.139,3.881c.593.478.54,1.01-.154,1.308a18.138,18.138,0,0,1-5.5,1.3,37.055,37.055,0,0,1-13.972-1.142,22.309,22.309,0,0,1-7.3-3.5C455.123,564.295,454.939,564.135,454.645,563.9Z"/><path d="M584.322,563.947c-.657.468-1.221.916-1.829,1.293a27.037,27.037,0,0,1-11.273,3.744,35.159,35.159,0,0,1-10.454-.144,30.483,30.483,0,0,1-3.906-1.088c-.646-.209-.712-.812-.186-1.233a27.106,27.106,0,0,1,10.662-5.484,19.237,19.237,0,0,1,10.462.437c2.017.64,3.98,1.45,5.965,2.188C583.917,563.718,584.057,563.81,584.322,563.947Z"/><path d="M451.788,544.092c1.254.077,2.433.118,3.605.229a28.209,28.209,0,0,1,7.823,1.647,20.8,20.8,0,0,1,9.631,8.016c.947,1.4,1.724,2.926,2.542,4.414.424.771.115,1.234-.757,1.177a21.283,21.283,0,0,1-7-1.835,34.774,34.774,0,0,1-12.606-8.654A17.834,17.834,0,0,1,451.788,544.092Z"/><path d="M470.273,575.859c1.133-.771,2.119-1.486,3.147-2.134a26.911,26.911,0,0,1,7.65-3.583,20.4,20.4,0,0,1,11.369.412c1.814.575,3.561,1.37,5.32,2.109.807.34.826.9.094,1.393a22.22,22.22,0,0,1-6.944,2.913,37.863,37.863,0,0,1-9.98,1.29,24.3,24.3,0,0,1-9.662-1.918C470.99,576.218,470.721,576.077,470.273,575.859Z"/><path d="M587.306,544.13a28.153,28.153,0,0,1-1.61,2.675,44.757,44.757,0,0,1-2.913,3.436,27.183,27.183,0,0,1-5.963,4.695,33.594,33.594,0,0,1-9.8,4.222,21.731,21.731,0,0,1-2.772.413c-.739.07-1.04-.388-.725-1.05a25.213,25.213,0,0,1,9.4-11.146,20.029,20.029,0,0,1,7.974-2.706c1.891-.255,3.8-.365,5.7-.537C586.766,544.117,586.935,544.13,587.306,544.13Z"/><path d="M473.7,540.59c1.531,1.091,2.971,2.058,4.346,3.11a21.951,21.951,0,0,1,5.965,6.491A22.842,22.842,0,0,1,486.83,561.3c.018,1.012-.043,2.026-.092,3.038-.021.426.062.938-.417,1.175-.511.254-.867-.16-1.224-.422a23.845,23.845,0,0,1-5.372-5.764,33.806,33.806,0,0,1-5.637-12.32A19.239,19.239,0,0,1,473.7,540.59Z"/><path d="M565.268,540.688a17.451,17.451,0,0,1-.249,5.613,33.678,33.678,0,0,1-6.191,13.607,22.575,22.575,0,0,1-4.884,5.127c-.37.272-.728.726-1.264.485s-.419-.809-.452-1.267a27.415,27.415,0,0,1,.877-9.653,19.184,19.184,0,0,1,5.812-9.233A44.174,44.174,0,0,1,565.268,540.688Z"/><path d="M548.29,559.024c-.418.779-.757,1.5-1.175,2.172a27.029,27.029,0,0,1-8.458,8.36,33.437,33.437,0,0,1-10.381,4.735,21.752,21.752,0,0,1-2.544.414c-.618.072-.976-.387-.728-.939,2.364-5.264,5.679-9.693,10.993-12.318a24.585,24.585,0,0,1,7.944-2.1c1.156-.144,2.321-.223,3.483-.323C547.665,559.006,547.909,559.024,548.29,559.024Z"/><path d="M490.79,558.97c5.218.366,10.325.866,14.744,3.973a24.879,24.879,0,0,1,7.878,9.61c.179.36.353.722.511,1.091.3.69-.026,1.12-.783,1.054a18.841,18.841,0,0,1-5.115-1.216,35.789,35.789,0,0,1-12.851-8.1,20.773,20.773,0,0,1-4.162-5.726c-.066-.138-.131-.276-.188-.417A1.468,1.468,0,0,1,490.79,558.97Z"/><path d="M462.051,518.8c1.119,1.354,2.19,2.573,3.176,3.857a22.164,22.164,0,0,1,4.34,8.45,23.218,23.218,0,0,1-.423,11.565c-.262.957-.574,1.9-.9,2.84-.27.784-.823.878-1.359.243a22.522,22.522,0,0,1-3.757-6.789,36.725,36.725,0,0,1-2.362-10.359,22.663,22.663,0,0,1,1.1-9.385C461.895,519.138,461.939,519.055,462.051,518.8Z"/><path d="M577.028,518.78c.328,1.295.689,2.417.89,3.568a34.052,34.052,0,0,1-4.942,22.247,12.835,12.835,0,0,1-1.031,1.3.632.632,0,0,1-1.14-.2c-2.147-5.822-2.9-11.7-.383-17.6a29.061,29.061,0,0,1,5.269-7.809C576.094,519.837,576.495,519.383,577.028,518.78Z"/><path d="M598.6,526.382a17.1,17.1,0,0,1-2.288,4.343,32.269,32.269,0,0,1-11.748,9.759,19.987,19.987,0,0,1-6.081,2.141c-.308.05-.8.03-.929-.153a1.252,1.252,0,0,1,0-.988,25.334,25.334,0,0,1,5.322-8.753,19.149,19.149,0,0,1,10.412-5.52c1.495-.3,3.008-.525,4.513-.776C598.046,526.4,598.294,526.4,598.6,526.382Z"/><path d="M440.345,526.333c1.051.144,2.011.251,2.962.409a27.867,27.867,0,0,1,7.468,2.131,19.458,19.458,0,0,1,8.633,8.355c.784,1.393,1.394,2.886,2.041,4.351a1.025,1.025,0,0,1-.017.883,1.1,1.1,0,0,1-.876.178,20.9,20.9,0,0,1-6.494-2.336,32.729,32.729,0,0,1-11-9.009A18.741,18.741,0,0,1,440.345,526.333Z"/><path d="M442.161,490.716c1.032.689,1.982,1.284,2.89,1.938a21.667,21.667,0,0,1,6.691,6.89,18.118,18.118,0,0,1,2.3,7.383c.143,1.822.109,3.659.111,5.489a1.048,1.048,0,0,1-.387.793c-.173.1-.579-.047-.8-.2a20.772,20.772,0,0,1-5.249-5.462,30.367,30.367,0,0,1-5.175-11.209A17.34,17.34,0,0,1,442.161,490.716Z"/><path d="M467.62,495.984a37.945,37.945,0,0,1,.494,7.977c-.383,6.139-3.6,10.656-8.222,14.365-.373.3-.754.587-1.147.859-.631.438-1.061.252-1.144-.5a19.186,19.186,0,0,1,.466-6.318,31.633,31.633,0,0,1,5.259-12.169,18.165,18.165,0,0,1,3.877-3.957C467.307,496.163,467.424,496.1,467.62,495.984Z"/><path d="M596.626,509.074a15.419,15.419,0,0,1-.672,4.34,27.779,27.779,0,0,1-5.086,9.553,28.132,28.132,0,0,1-6.175,6.023,15.835,15.835,0,0,1-1.579.933c-.594.311-1.008.073-.986-.58.182-5.433,1.549-10.451,5.445-14.455a23.361,23.361,0,0,1,4.007-3.133c1.418-.927,2.973-1.644,4.47-2.448A5.872,5.872,0,0,1,596.626,509.074Z"/><path d="M571.38,495.929c.536.428,1.012.769,1.444,1.159a25.388,25.388,0,0,1,6.694,10.474,29.37,29.37,0,0,1,1.752,6.991,34.205,34.205,0,0,1,.085,4.164c-.014.707-.519.9-1.1.483a22.353,22.353,0,0,1-8.421-10.4,19.668,19.668,0,0,1-.978-8.027c.077-1.372.26-2.739.4-4.108C571.272,496.463,571.321,496.262,571.38,495.929Z"/><path d="M452,475.271c1.237,1.693,2.459,3.279,3.588,4.929a17.5,17.5,0,0,1,3.138,10.586,25.028,25.028,0,0,1-2.033,9c-.272.655-.758.693-1.215.108a19.362,19.362,0,0,1-2.854-5.332,33.279,33.279,0,0,1-2.19-11.474,20.29,20.29,0,0,1,1.109-6.925c.071-.2.155-.391.238-.583A2.958,2.958,0,0,1,452,475.271Z"/><path d="M442.327,509.02c.86.421,1.654.748,2.387,1.18,1.542.909,3.107,1.8,4.564,2.832a17.116,17.116,0,0,1,6.694,10.232,51.043,51.043,0,0,1,.854,5.765,1.1,1.1,0,0,1-.267.9,1.154,1.154,0,0,1-.927-.125,20.913,20.913,0,0,1-5.613-4.576,31.912,31.912,0,0,1-5.864-8.7,20.542,20.542,0,0,1-1.758-6.254C442.361,509.892,442.354,509.514,442.327,509.02Z"/><path d="M596.821,490.777a18.557,18.557,0,0,1-.8,7.229,30.948,30.948,0,0,1-6.33,11.51c-1.026,1.191-2.247,2.214-3.391,3.3a2.05,2.05,0,0,1-.631.382.559.559,0,0,1-.85-.509,24.435,24.435,0,0,1,1.377-10.971,16.249,16.249,0,0,1,4.819-6.732c1.683-1.374,3.486-2.6,5.239-3.89A5.911,5.911,0,0,1,596.821,490.777Z"/><path d="M587.179,475.246c.343,1.265.715,2.365.937,3.495a28.3,28.3,0,0,1-1.067,13.745,22.046,22.046,0,0,1-3.508,7.353c-.521.672-.983.622-1.3-.143a24.564,24.564,0,0,1-2-9.643,15.319,15.319,0,0,1,1.449-6.722,50.422,50.422,0,0,1,2.981-4.925c.569-.878,1.262-1.676,1.905-2.505C586.72,475.725,586.883,475.569,587.179,475.246Z"/></g></g></svg>