<svg xmlns="http://www.w3.org/2000/svg" width="139.586" height="98.982" viewBox="0 0 139.586 98.982"><path d="M306.436,507.577c.321-.937.66-1.867.991-2.8v-.218q-5.588-7.113-11.175-14.226-8.63-11-17.262-21.99a1.33,1.33,0,0,1-.281-1.41c.653-2,1.229-4.024,1.82-6.042a11.094,11.094,0,0,0,.205-1.155c-1.1.214-2.091.4-3.077.6-1.3.259-2.6.508-3.893.8-.369.082-.486-.145-.646-.354q-4.386-5.737-8.768-11.475a2.876,2.876,0,0,0-2.033-1.124c-3.308-.33-6.622-.586-9.934-.865q-5.647-.475-11.3-.942c-1.1-.092-2.209-.174-3.313-.267-.194-.017-.385-.069-.578-.1h-2.181c-.641.584-1.27,1.18-1.923,1.749q-16.1,14.033-32.209,28.059l-32.91,28.662a1.513,1.513,0,0,1-.133.092v.763q7.889,4.685,15.777,9.37,5.314,3.157,10.624,6.319c.093.055.183.115.341.215l-3.589,2.889,15.888,14.468h.218c11.777,11.123,92.911,4.362,92.911,4.362,1.049-1.639.245-5.29-.563-7.94,0-1.079.007-2.157.053-3.233a9.962,9.962,0,0,1,.682-2.5c.043-.134.27-.225.427-.3,1.183-.6,2.376-1.171,3.549-1.784a1.258,1.258,0,0,0,.527-.563q.954-2.137,1.846-4.3a1.794,1.794,0,0,0,.128-.788c-.187-2.626-.424-5.25-.581-7.878-.092-1.539-.1-3.086-.067-4.628A5.113,5.113,0,0,1,306.436,507.577Zm-32.157-45.695,4.377-.943.034.1c-1.208.506-2.4,1.044-3.638,1.484-.2.069-.55-.3-.83-.473Zm4.862,55.726c.215,4-1.4,7.928-5.7,9.389a17.123,17.123,0,0,1-6.185.752,1.885,1.885,0,0,1-.288-.061v-8.64Zm-12.176-.013v-2.157l11.718.683.007.09Zm-.736-24.586v-2.173L283.269,488A40.47,40.47,0,0,1,266.229,493.009Zm.019-3.623c-.149-1.429-.149-1.43,1.163-1.661a53.725,53.725,0,0,1,9.606-.54c1.5.007,3,0,4.5.124Zm7.86-26.376-9.691,3.228v-1.794c.958-.231,1.937-.47,2.917-.706,1.8-.432,3.612-.817,5.393-1.315A1.1,1.1,0,0,1,274.108,463.01Zm-36.1,22.038,7.209-.592.013.112-7.222,1.214Zm-1.062-20.985v-1.8l9.034-1.677.022.121Zm1.076,23.16,9.285-1.66,0,.113-9.29,2.988Zm9.939,21.631.008.126-9.215.663v-1.434Zm-9.223,1.514,10.027-.715c.249,1.019.41,2.025.742,2.972.637,1.81,1.373,3.586,2.059,5.379a2.439,2.439,0,0,1,.153.676c.026.339.007.68.007,1.094l13-.719c.015.181.033.3.033.427q0,3.9,0,7.794c0,.24.028.46-.326.5a17.017,17.017,0,0,1-7.806-.574,12.661,12.661,0,0,1-6.647-5.464c-1.147-1.839-2.072-3.821-3.06-5.757a.972.972,0,0,0-.813-.655c-1.114-.147-2.22-.365-3.332-.532a.586.586,0,0,1-.568-.527c-.146-.691-.354-1.37-.5-2.061-.067-.317-.214-.405-.519-.4-.8.017-1.594.006-2.455.006Zm11.586-19.47c.439.657.86,1.268,1.256,1.894a.579.579,0,0,1,.061.445c-.644,1.749-1.3,3.492-1.963,5.236-.011.029-.048.047-.073.071C249.209,496.943,249.305,492.464,250.327,490.9Zm3.423-24.06,8.814-2.03v1.434l-8.8.685Zm.652,26.074,8.871-1.7v1.76H254.41Zm10.345,24.423c-.006.106-.212.279-.336.289-2.421.2-4.843.381-7.264.566a7.081,7.081,0,0,1-1.376.012l8.991-2.77C264.764,516.116,264.78,516.727,264.748,517.334Zm-.593-67.564,8.554,11.411-8.313,1.813c-.121-4.435-.24-8.811-.358-13.187Zm-1.609,40.177c-1.9.467-3.788.947-5.681,1.423l-.044-.1,6.39-2.555C263.448,489.668,263.4,489.74,262.546,489.948Zm.048-41.065v.715c0,4.342-.014,8.685.017,13.026,0,.591-.176.791-.731.933-4.321,1.109-8.633,2.254-12.985,3.4v.713l.664.055-2.153,10.066c-.169-.245-.3-.4-.4-.578a10.521,10.521,0,0,1-1.247-6.362,27.515,27.515,0,0,1,3.523-10.616,8.237,8.237,0,0,0,.407-1.239l-12.779,1.824c-.121-4.692-.241-9.346-.365-14.1Zm-35.063,61.454a34.16,34.16,0,0,1,9-2.12v1.43Zm8.994.034v.725l-4.147-.335v-.069Zm-11.859-20.9-.009-.146,11.129-1.736v1.8A30.752,30.752,0,0,1,224.666,489.474Zm11.151-4.129c.036.777.036.784-.726.933q-6.028,1.179-12.058,2.354c3.76-2.9,8.233-3.208,12.725-3.576A2.069,2.069,0,0,1,235.816,485.345Zm-12.091-20.493.03-.1,11.356-2.125c0,.459.017.851-.012,1.24a.429.429,0,0,1-.244.291c-3.406,1.278-6.868,1.963-10.479.925C224.154,465.024,223.942,464.931,223.725,464.852Zm-14.641,15.063a27.908,27.908,0,0,1,9.148-18.45c5.059-4.535,10.189-8.991,15.293-13.477.474-.417.981-.8,1.587-1.283v.58c0,4.453-.006,8.905.01,13.358,0,.43-.126.57-.549.665-4.958,1.105-9.911,2.236-14.864,3.362-.156.036-.308.09-.346.1-.268.834-.51,1.585-.749,2.336a26.075,26.075,0,0,0,1.152,19.977,5.281,5.281,0,0,0,.355.674,3.157,3.157,0,0,1,.2,3.139,19,19,0,0,0,.064,13.688c.558,1.544,1.379,2.993,2.083,4.483.077.163.172.316.322.588a3.8,3.8,0,0,1-.575,0,1.558,1.558,0,0,0-1.505.633c-.7.763-1.449,1.478-2.2,2.235a2.18,2.18,0,0,1-.191-.221,61.931,61.931,0,0,1-8.1-18.228A40.082,40.082,0,0,1,209.084,479.915Zm-11.514,38.71c-2.658-1.158-5.228-2.518-7.825-3.814q-10.009-4.995-20.006-10.011c-.126-.064-.249-.132-.469-.25.576-.618,1.089-1.224,1.659-1.771A20.43,20.43,0,0,1,181.01,497.7a24.741,24.741,0,0,1,14.061,1.383,68.15,68.15,0,0,1,14.163,7.724c2.762,1.849,5.512,3.714,8.267,5.573.059.04.113.085.236.176-2.853,3.482-6.114,6.281-10.632,7.208A15.618,15.618,0,0,1,197.57,518.625ZM303.636,505.1q-6.957,1.157-13.913,2.317a1.758,1.758,0,0,0-.686.294c-1.367.961-2.722,1.938-4.082,2.908-.2.145-.408.284-.739.513-.349-1.254-.731-2.4-.985-3.579a30.061,30.061,0,0,1-.057-11.594c.427-2.462,1.076-4.887,1.643-7.324.152-.652.183-.646.871-.719v-1.393c-.77.142-1.123-.469-1.553-.933a21.685,21.685,0,0,1-5.548-9.607,16.47,16.47,0,0,1-.043-7.5L306.7,504.572C305.627,504.756,304.632,504.931,303.636,505.1Z" transform="translate(-167.842 -445.997)"/></svg>