<svg xmlns="http://www.w3.org/2000/svg" width="195.228" height="195.228" viewBox="0 0 195.228 195.228"><defs><style>.a{fill:#7c6eab;opacity:0.46;}</style></defs><g transform="translate(-691.115 -632.603)"><circle class="a" cx="97.614" cy="97.614" r="97.614" transform="translate(691.115 632.603)"/><path d="M815.034,743.851c1.34,1.2,2.733,2.37,4.023,3.644a1.9,1.9,0,0,1,.58,1.528c-.269.775-.96.448-1.613.265a1.47,1.47,0,0,0-1.3.47c-.4.639-1.385,1.193-.706,2.2a3.274,3.274,0,0,0,.347.371c1.693,1.794,1.684,2.392-.1,4.183a16.45,16.45,0,0,1-8.512,4.987c.288.333.594.541.679.817a7.463,7.463,0,0,1,.171,1.38c-.5.047-1.178.325-1.485.1a42.933,42.933,0,0,1-4.2-3.463c-.346-.327-.278-1.092-.4-1.655a8.472,8.472,0,0,1,1.575.084,7.347,7.347,0,0,1,1.421.724c0-1.28-.019-2.322,0-3.364a16.836,16.836,0,0,1,3.074-8.894,19.3,19.3,0,0,0,1.3-3.174,34.051,34.051,0,0,0-5.151-2.219c-4.273-1.07-8.627-1.835-12.678-4.324-.088,1.08-.2,1.9-.213,2.713-.054,2.461-.1,4.922-.084,7.382,0,.472.36.938.382,1.415a2.944,2.944,0,0,1-.393,1.054c-.348-.153-1.008-.34-1-.455.159-1.507-1.173-2.166-1.764-3.231a16.539,16.539,0,0,0-1.11-1.5c-.063,1.863-.635,3.364-.024,4.954.1.271-.292.734-.458,1.108a3.939,3.939,0,0,1-.992-.831c-.285-.475-.286-1.128-.592-1.581-1.493-2.217-3.044-4.395-4.582-6.58-.2-.291-.455-.549-.684-.821l-.29.189c.2.364.378.738.594,1.09,2.121,3.467,4.265,6.92,6.358,10.4a9.986,9.986,0,0,1,.676,1.9,28.844,28.844,0,0,1,1.258,3.795,9.8,9.8,0,0,1-.1,3.064,2.062,2.062,0,0,1-.706,1.182c-1.676,1.391-1.371,3.141-1.123,4.981.459,3.4.763,6.826,1.162,10.238a7.129,7.129,0,0,0,.443,1.719c.9,2.327,1.713,2.774,4.185,2.866,6.141.226,12.287.418,18.411.894a21.394,21.394,0,0,1,5.939,1.775c2.062.812,3,2.535,3.42,4.706.58,3.018-.248,5.89-.6,8.815-.033.278-.187.723-.369.771-1.368.366-1.26,1.512-1.572,2.529-.154.505-.948.813-1.751,1.445l-2.009,3.341c.4.33,1.021.866,1.672,1.356a23.432,23.432,0,0,1,2.256,1.625c1.209,1.162,1.056,2,.34,3.509a13.592,13.592,0,0,0-1.151,4.345c-.224,2.13.148,4.312-.916,6.352a6.164,6.164,0,0,0-.217,2.131c-.07.74-.332,1.376-1.2,1.353-.927-.024-.957-.79-.85-1.4a10.062,10.062,0,0,0-1.39-7.615c-.669-1.031-.584-2.536-.921-3.8-.323-1.216-.748-2.405-1.187-3.788-.52.521-.86.865-1.205,1.205a4.708,4.708,0,0,1-4.051,1.682c-.775-.089-1.625.5-2.445.776-.9.295-1.79.589-2.692.861a11.748,11.748,0,0,0-1.767.483,4.252,4.252,0,0,1-3.543.343,2.427,2.427,0,0,0-1.77.1,2.813,2.813,0,0,1-2.781.084,3.012,3.012,0,0,0-3.012.014,5.349,5.349,0,0,1-2.415.135,6.1,6.1,0,0,1-1.313-.438c.562,1.1.952,1.858,1.339,2.619a16.582,16.582,0,0,1,1.01,2.045c.6,1.765.247,2.66-1.405,3.551a8.873,8.873,0,0,0-4.059,4.188,4.151,4.151,0,0,1-3.756,2.592c-1.952.007-3.9.109-5.854.1a4.339,4.339,0,0,1-1.312-.452c.321-.551.513-1.353.991-1.6a8.446,8.446,0,0,1,2.7-.661,2.673,2.673,0,0,0,2.458-2.19c.544-2.045,1.214-4.056,1.791-6.093.444-1.564.191-1.878-1.347-2.389a2.333,2.333,0,0,1-1.2-1.074c-1.842-3.617-3.613-7.271-5.425-10.9-1.757-3.52-3.518-7.039-5.315-10.537a19.916,19.916,0,0,0-2.342-4.028,6.559,6.559,0,0,1-1.677-5.163c.413-3.961.985-7.906,1.555-11.849.54-3.733,1.4-7.441,1.633-11.189.1-1.686-.076-3.768-1.845-5.063-1.627-1.191-1.752-2.848-1.565-4.774.355-3.656.42-7.34.626-11.421-.5.463-.788.624-.91.869-.8,1.593-1.6,3.185-2.3,4.82-.255.592-.175,1.322-.373,1.949a4.348,4.348,0,0,1-.735,1.068,3.651,3.651,0,0,1-.713-1.081,15.517,15.517,0,0,1-.039-1.731c-.209-2.053-.454-4.1-.688-6.154a2.041,2.041,0,0,0-.1-.493,2.494,2.494,0,0,0-.353-.438c-.985,1.89-1.943,3.693-2.854,5.519-.107.215.112.574.056.839a1.792,1.792,0,0,1-.438.932.8.8,0,0,1-.787-.1,1.436,1.436,0,0,1-.249-.9c-.007-1.459.051-2.919.01-4.377-.006-.218-.386-.483-.647-.628a2.662,2.662,0,0,1-1.174-4.047c.242-.452.424-.936.633-1.406l-.331-.223c-1.035,1.1-2.13,2.157-3.093,3.321a19.236,19.236,0,0,1-6.03,4.789,65.175,65.175,0,0,0-7.811,4.517,22.108,22.108,0,0,1-10.726,3.967,30.465,30.465,0,0,1-13.343-1.011c-.684-.234-1.587-.739-1.776-1.318-.339-1.042.614-1.7,1.468-2.094a35.3,35.3,0,0,1,10.541-3.221,12.976,12.976,0,0,1,2.528-.25,2.968,2.968,0,0,0,3.13-2.053c.319-.712.73-.984,1.479-.77A30.848,30.848,0,0,0,729.2,743.2a4.263,4.263,0,0,0,2.747-.3,26.179,26.179,0,0,0,4.416-3.773c1.446-1.54,2.649-3.309,3.961-4.976a7.723,7.723,0,0,1,1.369-1.665c2.17-1.517,2.883-3.868,3.831-6.137a29.856,29.856,0,0,1,2.6-4.938,2.449,2.449,0,0,0-.15-3.13c-2.365-3.282-5.5-4.841-9.576-4.071-2.827.535-5.662,1.073-8.445,1.8-4.3,1.119-8.545,2.133-12.973.463a10.129,10.129,0,0,1-6.793-7.9,2.466,2.466,0,0,1,.149-1.447,42.3,42.3,0,0,1,16.3-18.4,21.3,21.3,0,0,1,10.3-3.361,73.913,73.913,0,0,1,10.9.273c5.838.61,9.245,4.373,11.257,9.6,1.006,2.612,1.9,5.265,2.887,7.884a12.209,12.209,0,0,0,.941,1.67l.408-.1c.129-.9.273-1.8.381-2.707.05-.419-.11-.918.063-1.259,1.045-2.051.8-4.262.96-6.438.284-3.759,4.306-8.014,8.9-7.168,1.831.337,3.677.638,5.469,1.127,2.665.727,4.264,2.825,5.795,4.929a1.359,1.359,0,0,1-.092,1.129,1.838,1.838,0,0,1-.881.885c-1.743.615-1.507,1.966-1.351,3.322.112.969.219,1.94.279,2.913.093,1.485-.073,1.617-1.157,1.431-.716,1.092-1.348,2.046-1.964,3.01a1.8,1.8,0,0,0-.219.569c-.472,2.061-1.476,2.625-3.492,1.95-.192-.064-.382-.133-.588-.2-.134,1.54,0,1.655,1.409,1.718a3.874,3.874,0,0,0,3.368-1.476,25.964,25.964,0,0,0,2.54-3.926c1.18-2.252,2.156-4.611,3.317-6.873,3.6-7.009,9.277-10.651,17.192-11.593,7.508-.893,14.626.41,21.729,2.308,4,1.07,7.923,2.471,11.854,3.8,1.53.517,1.668,1.02.839,2.343-2.836,4.522-6.228,8.476-11.168,10.843-1.261.6-2.48,1.3-3.712,1.961a48.728,48.728,0,0,1-15.236,5.116,50.188,50.188,0,0,0-8.478,2.636,9.124,9.124,0,0,0-2.761,1.77c-1.8,1.555-3.483,3.232-5.245,4.826a1.2,1.2,0,0,0-.371,1.528,14.482,14.482,0,0,0,5.955,7.816c3.117,1.966,6.236,3.929,9.385,5.842a4.021,4.021,0,0,0,3.767.353c1.64-.651,3.247-.775,4.309,1.113.133.235.539.362.844.447,1.523.426,2.077,1.45,1.422,2.881A21.151,21.151,0,0,1,815.034,743.851Zm-2.183.037c-.644.332-1.472.486-1.728.953a3.852,3.852,0,0,0-.459,2.459c.1.486.891,1.457,1.772.722a5.346,5.346,0,0,0,1.514-1.976c.131-.321-.489-.944-.755-1.437C813.057,744.354,812.944,744.086,812.851,743.888Z" transform="translate(11.528 -31)"/></g></svg>