<svg xmlns="http://www.w3.org/2000/svg" width="195.228" height="195.228" viewBox="0 0 195.228 195.228"><defs><style>.a{fill:#7c6eab;opacity:0.46;}</style></defs><g transform="translate(-176.447 -387.871)"><circle class="a" cx="97.614" cy="97.614" r="97.614" transform="translate(176.447 387.871)"/><path d="M335.488,520.485c.388-1.133.8-2.259,1.2-3.388v-.264q-6.759-8.6-13.518-17.208-10.439-13.3-20.88-26.6a1.609,1.609,0,0,1-.34-1.706c.79-2.418,1.487-4.867,2.2-7.309a13.42,13.42,0,0,0,.248-1.4c-1.334.259-2.529.487-3.722.724-1.571.313-3.145.614-4.709.962-.446.1-.588-.175-.781-.428q-5.306-6.939-10.606-13.88a3.479,3.479,0,0,0-2.459-1.36c-4-.4-8.01-.709-12.016-1.046q-6.831-.574-13.663-1.139c-1.335-.111-2.672-.21-4.007-.323-.235-.02-.466-.083-.7-.126H249.1c-.775.706-1.536,1.427-2.326,2.115q-19.478,16.974-38.961,33.94L168,516.722a1.835,1.835,0,0,1-.161.111v.923q9.543,5.667,19.084,11.334,6.428,3.819,12.851,7.644c.112.067.221.139.412.26l-4.341,3.495,19.218,17.5h.264c14.246,13.455,112.387,5.276,112.387,5.276,1.269-1.983.3-6.4-.681-9.6,0-1.3.009-2.609.064-3.911a12.051,12.051,0,0,1,.825-3.019c.052-.162.326-.272.517-.368,1.431-.721,2.874-1.417,4.293-2.158a1.521,1.521,0,0,0,.637-.681q1.153-2.584,2.233-5.2a2.17,2.17,0,0,0,.155-.953c-.226-3.177-.513-6.35-.7-9.529-.111-1.862-.12-3.733-.081-5.6A6.185,6.185,0,0,1,335.488,520.485Zm-38.9-55.273,5.294-1.141.041.118c-1.461.612-2.909,1.263-4.4,1.8-.236.084-.665-.368-1-.572Zm5.881,67.407c.26,4.835-1.7,9.59-6.9,11.357a20.709,20.709,0,0,1-7.481.91,2.261,2.261,0,0,1-.348-.074V534.361Zm-14.728-.016v-2.609l14.174.826.009.109Zm-.89-29.739v-2.629l20.611-3.436A48.952,48.952,0,0,1,286.853,502.864Zm.023-4.383c-.18-1.728-.18-1.73,1.407-2.009a64.984,64.984,0,0,1,11.619-.653c1.812.008,3.624,0,5.442.15Zm9.507-31.9-11.723,3.9v-2.17c1.159-.28,2.343-.569,3.528-.854,2.177-.522,4.369-.988,6.523-1.59A1.332,1.332,0,0,1,296.383,466.576Zm-43.664,26.658,8.72-.716.016.135-8.736,1.468Zm-1.285-25.384v-2.179l10.928-2.029.027.146Zm1.3,28.015,11.231-2.008.006.137-11.237,3.614Zm12.022,26.165.01.153-11.147.8V521.25ZM253.6,523.861,265.731,523c.3,1.232.5,2.45.9,3.6.77,2.19,1.661,4.338,2.491,6.507a2.951,2.951,0,0,1,.185.818c.031.41.008.823.008,1.323l15.727-.87c.018.219.04.368.04.517q0,4.715,0,9.428c0,.291.034.557-.394.61a20.584,20.584,0,0,1-9.442-.7,15.315,15.315,0,0,1-8.04-6.609c-1.388-2.225-2.506-4.622-3.7-6.964a1.176,1.176,0,0,0-.983-.792c-1.348-.178-2.685-.442-4.031-.644a.708.708,0,0,1-.687-.638c-.176-.836-.428-1.657-.6-2.493-.081-.384-.259-.49-.628-.482-.964.02-1.928.007-2.97.007Zm14.015-23.551c.531.8,1.04,1.534,1.519,2.291a.7.7,0,0,1,.074.538c-.779,2.116-1.578,4.224-2.375,6.334-.013.035-.058.057-.088.086C266.265,507.622,266.381,502.2,267.617,500.31Zm4.141-29.1,10.661-2.456v1.735l-10.647.828Zm.789,31.539,10.73-2.054v2.129H272.556Zm12.514,29.542c-.007.128-.256.337-.406.35-2.928.242-5.858.461-8.787.684a8.55,8.55,0,0,1-1.664.014l10.876-3.351C285.08,530.814,285.1,531.553,285.061,532.288Zm-.717-81.726c3.428,4.574,6.856,9.147,10.347,13.8l-10.056,2.193c-.146-5.365-.29-10.658-.433-15.951Zm-1.946,48.6c-2.293.565-4.582,1.146-6.872,1.721l-.053-.122,7.729-3.091C283.488,498.822,283.425,498.909,282.4,499.161Zm.058-49.673v.865c0,5.252-.017,10.505.02,15.757,0,.715-.213.957-.884,1.129-5.227,1.341-10.442,2.726-15.707,4.109v.863l.8.067c-.861,4.027-1.716,8.025-2.6,12.176-.205-.3-.359-.489-.481-.7a12.726,12.726,0,0,1-1.508-7.7,33.281,33.281,0,0,1,4.262-12.841,9.967,9.967,0,0,0,.492-1.5l-15.458,2.206c-.146-5.675-.292-11.3-.441-17.059Zm-42.413,74.336a41.323,41.323,0,0,1,10.881-2.565v1.73Zm10.879.041v.877l-5.016-.405v-.084Zm-14.345-25.277-.011-.176,13.462-2.1v2.182A37.2,37.2,0,0,1,236.577,498.588Zm13.488-5c.044.94.043.948-.878,1.128q-7.291,1.426-14.585,2.847c4.548-3.5,9.959-3.881,15.392-4.326A2.5,2.5,0,0,1,250.065,493.593ZM235.439,468.8l.036-.115,13.736-2.571c0,.555.021,1.029-.014,1.5a.519.519,0,0,1-.3.352c-4.12,1.546-8.308,2.375-12.676,1.119C235.958,469.012,235.7,468.9,235.439,468.8Zm-17.71,18.221c.956-8.784,4.425-16.366,11.065-22.317,6.12-5.486,12.325-10.876,18.5-16.3.573-.5,1.187-.962,1.92-1.552v.7c0,5.386-.007,10.772.012,16.158,0,.52-.153.69-.664.8-6,1.337-11.988,2.7-17.98,4.067-.189.043-.373.109-.418.122-.324,1.009-.617,1.917-.906,2.826-2.623,8.233-2.41,16.3,1.394,24.164a6.391,6.391,0,0,0,.43.815,3.818,3.818,0,0,1,.244,3.8,22.988,22.988,0,0,0,.077,16.557c.675,1.868,1.668,3.62,2.519,5.423.093.2.208.382.389.711a4.6,4.6,0,0,1-.7-.005,1.885,1.885,0,0,0-1.821.766c-.845.923-1.753,1.788-2.661,2.7a2.639,2.639,0,0,1-.231-.267,74.914,74.914,0,0,1-9.8-22.049A48.484,48.484,0,0,1,217.729,487.025ZM203.8,533.849c-3.215-1.4-6.324-3.046-9.465-4.613q-12.106-6.042-24.2-12.11c-.152-.077-.3-.16-.567-.3.7-.747,1.317-1.48,2.007-2.142a24.712,24.712,0,0,1,12.194-6.144c5.833-1.269,11.484-.366,17.008,1.673,6.168,2.276,11.705,5.711,17.132,9.343,3.341,2.236,6.667,4.493,10,6.741.071.048.137.1.285.213-3.451,4.212-7.4,7.6-12.861,8.719A18.892,18.892,0,0,1,203.8,533.849Zm128.3-16.364q-8.415,1.4-16.829,2.8a2.126,2.126,0,0,0-.83.356c-1.653,1.162-3.293,2.344-4.938,3.518-.245.175-.494.343-.894.62-.422-1.517-.884-2.907-1.192-4.329a36.363,36.363,0,0,1-.069-14.024c.517-2.978,1.3-5.911,1.988-8.859.184-.789.221-.781,1.054-.87v-1.685c-.931.172-1.359-.567-1.879-1.129a26.231,26.231,0,0,1-6.711-11.621,19.922,19.922,0,0,1-.052-9.073L335.8,516.85C334.509,517.073,333.306,517.285,332.1,517.485Z" transform="translate(11.528 -31)"/></g></svg>