<svg xmlns="http://www.w3.org/2000/svg" width="195.228" height="195.228" viewBox="0 0 195.228 195.228"><defs><style>.a{fill:#7c6eab;opacity:0.46;}</style></defs><g transform="translate(-685.934 -387.871)"><circle class="a" cx="97.614" cy="97.614" r="97.614" transform="translate(685.934 387.871)"/><path d="M730.272,520.861a23.455,23.455,0,0,1-2.078-1.583c-.408-.387-.968-.981-.92-1.424.345-3.2.691-6.4,1.313-9.555.45-2.28.09-3.714-2.326-4.527-3.261-1.1-3.966-3.076-1.839-5.807,2.5-3.211,5.48-6.046,8.069-9.2a5.333,5.333,0,0,0,1.261-3.562,21.1,21.1,0,0,1,4.544-16.237c1.759-2.245,2.66-4.473,1.649-7.5-1.018-3.049.35-5.884,2.393-8.218a17.834,17.834,0,0,1,10.892-6.121,6.92,6.92,0,0,0,5.513-3.591c1.584-2.912,3.284-5.771,4.68-8.771.492-1.057-.008-2.548.392-3.684.378-1.075,1.258-2.662,2.065-2.756a10.361,10.361,0,0,1,5.527.782c.687.336,1,2.835.489,3.849-.578,1.146-2.179,1.949-3.5,2.516-4.1,1.758-5.257,8.077-1.9,11.045,1.173-.883,2.26-2.279,3.553-2.507,1.2-.212,2.611.828,4.028,1.353,1.031-1.039.89-1.9-.717-2.467-1.115-.392-2.609-.518-3.218-1.311a4.67,4.67,0,0,1-.446-3.489c.1-.454,1.766-.94,2.572-.759a18.776,18.776,0,0,1,3.842,1.841c.074-1.6-.168-3.178.3-4.509.457-1.3,1.5-3.11,2.541-3.3a6.544,6.544,0,0,1,4.455,1.468c1.363,1.023,1.525,2.75.606,4.4-.489.878-.852,1.826-1.431,3.09.915-.265,1.626-.73,2.038-.541a8.417,8.417,0,0,1,3.209,2.116,2.738,2.738,0,0,1-.485,2.675,5.07,5.07,0,0,1-3.4.822c-1.2-.162-2.289-.964-2.636,1.147a6.291,6.291,0,0,0,1.683.255c2.125-.271,3.167.751,3.537,2.725.221,1.183.684,2.389,2.145,1.574,2.42-1.352,4.005-.42,5.432,1.508a7.361,7.361,0,0,0,1.079.984l.624-.293a19.27,19.27,0,0,0-.908-2.464,7.34,7.34,0,0,0-1.2-1.309c-1.122-1.241-1.432-2.819-.145-3.824,1.37-1.07,2.906-.533,3.88,1.053.546.889,1.124,1.758,1.985,3.1.971-3.891,2.794-6.258,6.443-5.936a4.14,4.14,0,0,1,2.943,2.262c1.055,3.172-.9,5.236-3.725,6.983,2.392.636,4.016,1.78,3.337,4.173-.748,2.637-2.978,2.32-5.178,1.959.2,2.566.237,4.978,3.386,5.866.721.2,1.077,1.575,1.689,2.339a7.555,7.555,0,0,0,1.309,1.053,4.71,4.71,0,0,0,.329-1.822c-.2-.8-.874-1.48-1.086-2.281-.426-1.608-.283-3.158,1.659-3.672,1.759-.465,2.694.465,3.088,2.156.24,1.033.642,2.028,1.16,3.622,2.294-3.685,5.208-4.961,8.658-3.164.885.461,1.473,2.475,1.355,3.694-.343,3.542-3.533,3.555-6.406,4.3.689.459,1.367.664,1.571,1.094.532,1.123,1.3,2.421,1.116,3.5a3.247,3.247,0,0,1-2.541,1.849c-.989.007-2.039-.981-2.962-1.67a17.266,17.266,0,0,1-1.9-1.921l-.589.579c.453.581.91,1.158,1.357,1.744.873,1.142,1.165,2.305-.06,3.386-1.43,1.261-1.154,2.7-.513,4.186.928,2.145,2.014,2.472,3.969,1.107,1.683-1.175,2.974-2.461,3.232-4.83.4-3.672,5.2-5.908,8.272-3.85a4.925,4.925,0,0,1,1.625,3.874c-.1,1.246-1.2,3.162-2.226,3.45-3.453.965-5.877,3.187-8.528,5.338-2,1.626-4.618,2.48-6.889,3.8-3.678,2.136-3.944,2.85-2.987,7.019.856,3.728,1.853,7.423.942,11.321-1.132,4.841-4.19,7.655-8.924,8.743-2.567.589-5.2.916-7.743,1.574-3.014.779-3.845,2.064-3.776,5.168.127,5.748,2.321,10.784,5.589,15.349,2.721,3.8,5.874,7.3,8.539,11.136a33.314,33.314,0,0,1,4.378,8.233c1.075,3.222.019,5.233-3.082,6.674a60.718,60.718,0,0,1-9.758,3.623,325.479,325.479,0,0,0-47.229,16.922,6.153,6.153,0,0,1-1.885.746c-.954.063-2.227.175-2.806-.35a3.147,3.147,0,0,1-.51-2.72,40.22,40.22,0,0,1,2.3-5.375c2.982-6.294,6.34-12.435,8.911-18.891,3.432-8.621-.32-21.935-7.784-27.442-2.681-1.978-6.349-2.667-9.625-3.772-2-.676-4.133-.971-6.181-1.529-3.145-.858-3.9-2.4-2.736-5.505C729.324,522.928,729.8,521.946,730.272,520.861Z" transform="translate(11.528 -23)"/></g></svg>