<svg xmlns="http://www.w3.org/2000/svg" width="131.294" height="113.569" viewBox="0 0 131.294 113.569"><g transform="translate(-440.345 -454.437)"><path d="M540.839,581.405a11.882,11.882,0,0,1-3.737,1.221,25.543,25.543,0,0,1-4.156.367,28.914,28.914,0,0,1-13.493-3.305,5,5,0,0,0-.73-.365A60.275,60.275,0,0,0,526.245,587l-1.471,1.632c-1.2-1.01-2.354-2.023-3.549-2.983a18.4,18.4,0,0,1-2.664-3.27,19.939,19.939,0,0,0-1.629-1.858,4.186,4.186,0,0,0-5.9-.044,20.849,20.849,0,0,0-2.938,3.694,6.72,6.72,0,0,1-1.2,1.268c-1.221,1.071-2.469,2.114-3.736,3.192L501.682,587a61.21,61.21,0,0,0,7.535-7.671,28.205,28.205,0,0,1-10.812,3.454,20.926,20.926,0,0,1-11.324-1.3c.365-.3.65-.538.945-.767a27.412,27.412,0,0,1,6.86-4.135,16.421,16.421,0,0,1,11.158-.217c4.04,1.306,8.124,1.213,12.236.851a21.687,21.687,0,0,0,3.59-.889,19.754,19.754,0,0,1,7.629-.64,16.929,16.929,0,0,1,7.209,2.788C538.082,579.369,539.392,580.371,540.839,581.405Z" transform="translate(-7.963 -20.624)"/><path d="M480.318,454.545c0,.836.037,1.64-.007,2.44a28.69,28.69,0,0,1-.891,5.916,17.278,17.278,0,0,1-6.16,9.045,25.705,25.705,0,0,1-4.781,3.012c-.784.386-1.139.148-1.079-.733a20.311,20.311,0,0,1,1.838-6.759,30.762,30.762,0,0,1,5.343-8.5,19.048,19.048,0,0,1,5.295-4.219C480.025,454.666,480.182,454.606,480.318,454.545Z" transform="translate(-4.608 -0.018)"/><path d="M557.2,475.791a14.972,14.972,0,0,1,4.395,1.585,29.711,29.711,0,0,1,11.559,11.412,21.154,21.154,0,0,1,1.378,3.123c.25.636-.1,1.006-.762.86a22.538,22.538,0,0,1-10.285-4.868,17.069,17.069,0,0,1-4.643-6.867c-.655-1.7-1.2-3.433-1.8-5.152Z" transform="translate(-19.883 -3.638)"/><path d="M556.04,454.437c.984.655,2.013,1.254,2.944,1.976a25.679,25.679,0,0,1,6.864,8.538,26.955,26.955,0,0,1,2.822,7.545,15.142,15.142,0,0,1,.22,1.984.547.547,0,0,1-.85.563c-4.84-2.385-8.8-5.652-10.761-10.88a22.991,22.991,0,0,1-1.205-6c-.111-1.195-.148-2.4-.219-3.594Z" transform="translate(-19.68)"/><path d="M462.742,457.884a35.812,35.812,0,0,1,2.733,7.131,17.038,17.038,0,0,1-1.523,12.22,48.265,48.265,0,0,1-2.659,4.326c-.433.673-.914.6-1.236-.147a19.49,19.49,0,0,1-1.4-6.473,31.415,31.415,0,0,1,.749-9.822,19.648,19.648,0,0,1,2.909-6.669C462.434,458.285,462.56,458.126,462.742,457.884Z" transform="translate(-3.105 -0.587)"/><path d="M478.235,475.812a40.164,40.164,0,0,1-2.36,6.719,16.885,16.885,0,0,1-7.507,7.816,25.212,25.212,0,0,1-6.682,2.408c-.764.168-1.067-.157-.84-.9a18.357,18.357,0,0,1,2.849-5.4,30.784,30.784,0,0,1,8.352-8.09A17.572,17.572,0,0,1,478,475.836C478.057,475.824,478.117,475.824,478.235,475.812Z" transform="translate(-3.48 -3.642)"/><path d="M574.714,457.913a16,16,0,0,1,2.265,3.97,25.248,25.248,0,0,1,1.856,9.794,47.226,47.226,0,0,1-.421,6.006,21.177,21.177,0,0,1-1.041,3.737c-.254.767-.75.8-1.231.149a22.913,22.913,0,0,1-4.406-9.484,15.83,15.83,0,0,1,.538-8.118c.651-1.932,1.488-3.8,2.245-5.7A3.887,3.887,0,0,1,574.714,457.913Z" transform="translate(-22.336 -0.592)"/><path d="M563.93,574.753a15.3,15.3,0,0,1-4.478,1.57,27.335,27.335,0,0,1-11-.238,23.186,23.186,0,0,1-6.325-2.144,12.487,12.487,0,0,1-1.211-.75.533.533,0,0,1,.074-1c4.143-2.1,8.465-3.22,13.138-2.34a19.077,19.077,0,0,1,6.284,2.622C561.571,573.172,562.691,573.946,563.93,574.753Z" transform="translate(-17.08 -19.612)"/><path d="M454.645,563.321c3.325-1.449,6.587-2.72,10.165-2.806a16.972,16.972,0,0,1,7.633,1.72,24.893,24.893,0,0,1,5.093,3.22c.492.4.448.838-.128,1.085a15.05,15.05,0,0,1-4.56,1.082,30.743,30.743,0,0,1-11.591-.947,18.51,18.51,0,0,1-6.054-2.9C455.042,563.65,454.889,563.518,454.645,563.321Z" transform="translate(-2.436 -18.072)"/><path d="M579.552,563.361c-.545.388-1.013.76-1.517,1.073a22.431,22.431,0,0,1-9.352,3.106,29.167,29.167,0,0,1-8.673-.119,25.288,25.288,0,0,1-3.24-.9c-.536-.173-.591-.674-.154-1.023a22.487,22.487,0,0,1,8.845-4.55,15.959,15.959,0,0,1,8.68.363c1.673.531,3.3,1.2,4.949,1.815C579.216,563.171,579.332,563.248,579.552,563.361Z" transform="translate(-19.76 -18.072)"/><path d="M451.788,544.092c1.04.064,2.018.1,2.991.19a23.4,23.4,0,0,1,6.49,1.366,17.259,17.259,0,0,1,7.99,6.65c.786,1.165,1.43,2.427,2.109,3.662.352.64.1,1.024-.628.977a17.658,17.658,0,0,1-5.81-1.522,28.85,28.85,0,0,1-10.458-7.18A14.8,14.8,0,0,1,451.788,544.092Z" transform="translate(-1.95 -15.275)"/><path d="M470.273,574.78c.94-.64,1.758-1.233,2.611-1.77a22.324,22.324,0,0,1,6.347-2.973,16.921,16.921,0,0,1,9.432.342c1.5.477,2.954,1.137,4.414,1.75.67.282.685.748.078,1.156a18.436,18.436,0,0,1-5.761,2.417,31.411,31.411,0,0,1-8.28,1.07,20.157,20.157,0,0,1-8.016-1.591C470.868,575.077,470.645,574.96,470.273,574.78Z" transform="translate(-5.099 -19.608)"/><path d="M583.233,544.129a23.359,23.359,0,0,1-1.336,2.219,37.137,37.137,0,0,1-2.417,2.851,22.553,22.553,0,0,1-4.947,3.9,27.87,27.87,0,0,1-8.13,3.5,18.03,18.03,0,0,1-2.3.343c-.613.058-.863-.322-.6-.871a20.918,20.918,0,0,1,7.8-9.247,16.615,16.615,0,0,1,6.615-2.245c1.569-.212,3.153-.3,4.731-.445C582.785,544.118,582.925,544.129,583.233,544.129Z" transform="translate(-20.966 -15.281)"/><path d="M473.684,540.59c1.27.905,2.465,1.707,3.606,2.58a18.211,18.211,0,0,1,4.949,5.385,18.95,18.95,0,0,1,2.335,9.215c.015.84-.036,1.681-.076,2.52-.017.353.051.778-.346.975-.424.211-.719-.133-1.016-.35a19.782,19.782,0,0,1-4.457-4.782A28.046,28.046,0,0,1,474,545.912,15.961,15.961,0,0,1,473.684,540.59Z" transform="translate(-5.663 -14.678)"/><path d="M563.031,540.688a14.478,14.478,0,0,1-.207,4.657,27.94,27.94,0,0,1-5.136,11.289,18.728,18.728,0,0,1-4.052,4.253c-.307.226-.6.6-1.049.4s-.348-.671-.375-1.051a22.743,22.743,0,0,1,.728-8.008,15.915,15.915,0,0,1,4.822-7.66A36.652,36.652,0,0,1,563.031,540.688Z" transform="translate(-19.047 -14.695)"/><path d="M544.309,559.023c-.347.646-.628,1.244-.975,1.8a22.424,22.424,0,0,1-7.017,6.936,27.739,27.739,0,0,1-8.612,3.928,18.056,18.056,0,0,1-2.111.343c-.513.06-.81-.321-.6-.779,1.961-4.367,4.711-8.042,9.12-10.219a20.4,20.4,0,0,1,6.59-1.741c.959-.119,1.926-.185,2.89-.268C543.791,559.008,543.993,559.023,544.309,559.023Z" transform="translate(-14.41 -17.818)"/><path d="M490.79,558.97c4.329.3,8.566.719,12.232,3.3a20.64,20.64,0,0,1,6.536,7.973c.149.3.293.6.424.905.245.572-.022.929-.65.874a15.633,15.633,0,0,1-4.244-1.009,29.691,29.691,0,0,1-10.661-6.724,17.234,17.234,0,0,1-3.453-4.75c-.055-.115-.109-.229-.156-.346A1.22,1.22,0,0,1,490.79,558.97Z" transform="translate(-8.595 -17.81)"/><path d="M461.819,518.8c.928,1.123,1.817,2.135,2.635,3.2a18.387,18.387,0,0,1,3.6,7.01,19.262,19.262,0,0,1-.351,9.595c-.217.794-.476,1.578-.745,2.356-.224.65-.683.728-1.127.2a18.684,18.684,0,0,1-3.117-5.632,30.468,30.468,0,0,1-1.96-8.594,18.8,18.8,0,0,1,.909-7.786C461.69,519.081,461.726,519.012,461.819,518.8Z" transform="translate(-3.467 -10.966)"/><path d="M575.633,518.78c.272,1.074.572,2.005.738,2.96a28.251,28.251,0,0,1-4.1,18.457,10.651,10.651,0,0,1-.855,1.082.524.524,0,0,1-.946-.163c-1.781-4.83-2.4-9.7-.318-14.6a24.111,24.111,0,0,1,4.371-6.479C574.858,519.657,575.191,519.28,575.633,518.78Z" transform="translate(-21.893 -10.963)"/><path d="M595,526.382a14.188,14.188,0,0,1-1.9,3.6,26.772,26.772,0,0,1-9.746,8.1,16.582,16.582,0,0,1-5.045,1.776c-.256.042-.663.025-.771-.127a1.039,1.039,0,0,1,0-.82,21.017,21.017,0,0,1,4.415-7.262,15.887,15.887,0,0,1,8.638-4.58c1.24-.252,2.5-.436,3.744-.644C594.538,526.393,594.744,526.4,595,526.382Z" transform="translate(-23.36 -12.258)"/><path d="M440.345,526.333c.872.119,1.668.208,2.457.339a23.117,23.117,0,0,1,6.2,1.768,16.142,16.142,0,0,1,7.162,6.932c.65,1.156,1.156,2.394,1.693,3.61a.851.851,0,0,1-.014.733.914.914,0,0,1-.727.148,17.34,17.34,0,0,1-5.388-1.938,27.153,27.153,0,0,1-9.122-7.474A15.549,15.549,0,0,1,440.345,526.333Z" transform="translate(0 -12.249)"/><path d="M442.146,490.716c.856.572,1.644,1.065,2.4,1.608a17.975,17.975,0,0,1,5.551,5.716A15.031,15.031,0,0,1,452,504.165c.119,1.512.09,3.036.092,4.554a.869.869,0,0,1-.321.658c-.144.085-.48-.039-.668-.164a17.233,17.233,0,0,1-4.355-4.531,25.193,25.193,0,0,1-4.293-9.3A14.386,14.386,0,0,1,442.146,490.716Z" transform="translate(-0.294 -6.181)"/><path d="M465.9,495.984a31.482,31.482,0,0,1,.41,6.618c-.318,5.093-2.984,8.84-6.821,11.918-.309.247-.626.487-.952.713-.523.363-.88.209-.949-.417a15.917,15.917,0,0,1,.387-5.242,26.244,26.244,0,0,1,4.363-10.1,15.069,15.069,0,0,1,3.216-3.283C465.638,496.133,465.735,496.083,465.9,495.984Z" transform="translate(-2.924 -7.079)"/><path d="M594.156,509.074a12.792,12.792,0,0,1-.557,3.6,23.047,23.047,0,0,1-4.219,7.925,23.337,23.337,0,0,1-5.123,5,13.14,13.14,0,0,1-1.31.774c-.493.258-.836.061-.818-.481.151-4.507,1.285-8.67,4.517-11.992a19.379,19.379,0,0,1,3.324-2.6c1.176-.769,2.466-1.364,3.708-2.031A4.867,4.867,0,0,1,594.156,509.074Z" transform="translate(-24.156 -9.309)"/><path d="M571.281,495.929c.445.355.84.638,1.2.962a21.064,21.064,0,0,1,5.554,8.69,24.366,24.366,0,0,1,1.453,5.8,28.38,28.38,0,0,1,.07,3.455c-.012.587-.431.75-.917.4a18.546,18.546,0,0,1-6.986-8.627,16.318,16.318,0,0,1-.811-6.659c.064-1.138.216-2.272.332-3.408C571.192,496.372,571.232,496.205,571.281,495.929Z" transform="translate(-22.227 -7.069)"/><path d="M451.729,475.271c1.026,1.4,2.04,2.72,2.977,4.089a14.52,14.52,0,0,1,2.6,8.782,20.765,20.765,0,0,1-1.687,7.468c-.226.543-.629.575-1.008.09a16.063,16.063,0,0,1-2.368-4.424,27.609,27.609,0,0,1-1.817-9.519,16.831,16.831,0,0,1,.92-5.745c.059-.164.129-.324.2-.484A2.465,2.465,0,0,1,451.729,475.271Z" transform="translate(-1.718 -3.55)"/><path d="M442.327,509.02c.714.349,1.372.621,1.98.979,1.279.754,2.578,1.49,3.786,2.349a14.2,14.2,0,0,1,5.553,8.489,42.35,42.35,0,0,1,.708,4.783.908.908,0,0,1-.222.743.957.957,0,0,1-.769-.1,17.349,17.349,0,0,1-4.657-3.8,26.474,26.474,0,0,1-4.865-7.22,17.04,17.04,0,0,1-1.458-5.188C442.355,509.743,442.349,509.43,442.327,509.02Z" transform="translate(-0.338 -9.3)"/><path d="M594.759,490.777a15.4,15.4,0,0,1-.665,6,25.675,25.675,0,0,1-5.252,9.549c-.851.988-1.864,1.837-2.813,2.739a1.7,1.7,0,0,1-.523.317.464.464,0,0,1-.705-.422,20.272,20.272,0,0,1,1.142-9.1,13.48,13.48,0,0,1,4-5.585c1.4-1.14,2.892-2.159,4.346-3.227A4.89,4.89,0,0,1,594.759,490.777Z" transform="translate(-24.598 -6.191)"/><path d="M586,475.246c.284,1.049.593,1.962.777,2.9a23.483,23.483,0,0,1-.885,11.4,18.29,18.29,0,0,1-2.91,6.1c-.432.557-.816.516-1.075-.119a20.38,20.38,0,0,1-1.657-8,12.708,12.708,0,0,1,1.2-5.577,41.838,41.838,0,0,1,2.473-4.086c.472-.728,1.047-1.39,1.58-2.078C585.617,475.643,585.752,475.514,586,475.246Z" transform="translate(-23.836 -3.545)"/></g></svg>