<svg xmlns="http://www.w3.org/2000/svg" width="294.099" height="263.467" viewBox="0 0 294.099 263.467"><defs><style>.a,.b{stroke:#000;stroke-miterlimit:10;}.b{fill:#f0f0f0;stroke-width:11px;}.c{fill:gray;}.d{fill:#28448a;}.e{fill:#5ca530;}.f{fill:#eada00;}.g{fill:#db8000;}.h{fill:#d81f13;}</style></defs><g transform="translate(-1334.373 -250.5)"><path class="a" d="M1608.964,304.073a9.938,9.938,0,0,0,9.938-9.939v-2a9.937,9.937,0,0,0-9.938-9.938H1335.742a9.938,9.938,0,0,0-9.939,9.938v2a9.939,9.939,0,0,0,9.939,9.939h9.747V461.559h-9.747a9.939,9.939,0,0,0-9.939,9.939v2a9.939,9.939,0,0,0,9.939,9.939h273.222a9.938,9.938,0,0,0,9.938-9.939v-2a9.938,9.938,0,0,0-9.938-9.939h-9.747V304.073Z" transform="translate(9.07 -31.2)"/><circle class="b" cx="28.982" cy="28.982" r="28.982" transform="translate(1453.535 450.503)"/><rect class="c" width="256" height="155.984" transform="translate(1352.94 272.456)"/><g transform="translate(9 -84)"><rect class="d" width="35.843" height="157.537" transform="translate(1343.535 355.927)"/><rect class="e" width="35.843" height="157.537" transform="translate(1379.305 355.927)"/><rect class="e" width="35.843" height="157.537" transform="translate(1530.751 355.927)"/><rect class="f" width="35.843" height="157.537" transform="translate(1495.555 355.927)"/><rect class="f" width="35.843" height="157.537" transform="translate(1412.518 355.927)"/><rect class="g" width="51.173" height="157.537" transform="translate(1448.287 355.927)"/><rect class="h" width="10.294" height="157.537" transform="translate(1468.727 355.927)"/><rect class="d" width="35.843" height="157.537" transform="translate(1566.52 355.927)"/></g></g></svg>