<svg xmlns="http://www.w3.org/2000/svg" width="294.099" height="263.467" viewBox="0 0 294.099 263.467"><defs><style>.a,.b{stroke:#000;stroke-miterlimit:10;}.b{fill:#f0f0f0;stroke-width:11px;}.c{fill:gray;}.d{fill:#28448a;}.e{fill:#c42417;}</style></defs><g transform="translate(-1334.373 -250.5)"><path class="a" d="M1608.964,304.073a9.938,9.938,0,0,0,9.938-9.939v-2a9.937,9.937,0,0,0-9.938-9.938H1335.742a9.938,9.938,0,0,0-9.939,9.938v2a9.939,9.939,0,0,0,9.939,9.939h9.747V461.559h-9.747a9.939,9.939,0,0,0-9.939,9.939v2a9.939,9.939,0,0,0,9.939,9.939h273.222a9.938,9.938,0,0,0,9.938-9.939v-2a9.938,9.938,0,0,0-9.938-9.939h-9.747V304.073Z" transform="translate(9.07 -31.2)"/><circle class="b" cx="28.982" cy="28.982" r="28.982" transform="translate(1453.535 450.503)"/><rect class="c" width="256" height="155.984" transform="translate(1352.94 272.456)"/><g transform="translate(747.07 -428.2)"><path class="d" d="M0,0H255.858V156.733H0Z" transform="translate(605.439 701.127)"/><rect class="e" width="57.245" height="156.733" transform="translate(605.439 701.127)"/><rect class="e" width="55.039" height="156.733" transform="translate(806.258 701.127)"/></g></g></svg>