<svg xmlns="http://www.w3.org/2000/svg" width="294.099" height="263.467" viewBox="0 0 294.099 263.467"><defs><style>.a{fill:#f0f0f0;stroke-width:11px;}.a,.b{stroke:#000;stroke-miterlimit:10;}.c{fill:gray;}.d{fill:#28448a;}.e{fill:#fff;}.f{fill:#c42417;}</style></defs><g transform="translate(-1334.373 -250.5)"><circle class="a" cx="28.982" cy="28.982" r="28.982" transform="translate(1453.535 450.503)"/><path class="b" d="M1608.964,304.073a9.938,9.938,0,0,0,9.938-9.939v-2a9.937,9.937,0,0,0-9.938-9.938H1335.742a9.938,9.938,0,0,0-9.939,9.938v2a9.939,9.939,0,0,0,9.939,9.939h9.747V461.559h-9.747a9.939,9.939,0,0,0-9.939,9.939v2a9.939,9.939,0,0,0,9.939,9.939h273.222a9.938,9.938,0,0,0,9.938-9.939v-2a9.938,9.938,0,0,0-9.938-9.939h-9.747V304.073Z" transform="translate(9.07 -31.2)"/><rect class="c" width="256" height="155.984" transform="translate(1352.94 272.456)"/><g transform="translate(963.07 -167.2)"><g transform="translate(389.465 439.833)"><rect class="d" width="52.212" height="157.945" transform="translate(0 0)"/></g><g transform="translate(593.53 439.833)"><rect class="d" width="52.212" height="157.945" transform="translate(0 0)"/></g><g transform="translate(441.538 439.833)"><rect class="e" width="50.938" height="157.945" transform="translate(0 0)"/></g><g transform="translate(542.837 439.833)"><rect class="e" width="50.938" height="157.945" transform="translate(0 0)"/></g><g transform="translate(491.453 439.833)"><rect class="f" width="50.938" height="157.945" transform="translate(0 0)"/></g></g></g></svg>