<svg xmlns="http://www.w3.org/2000/svg" width="294.099" height="263.467" viewBox="0 0 294.099 263.467"><defs><style>.a,.b{stroke:#000;stroke-miterlimit:10;}.b{fill:#f0f0f0;stroke-width:11px;}.c{fill:gray;}.d{fill:#d88936;}.e{fill:#28448a;}.f{fill:#fff;}</style></defs><g transform="translate(-1334.373 -250.5)"><path class="a" d="M1608.964,304.073a9.938,9.938,0,0,0,9.938-9.939v-2a9.937,9.937,0,0,0-9.938-9.938H1335.742a9.938,9.938,0,0,0-9.939,9.938v2a9.939,9.939,0,0,0,9.939,9.939h9.747V461.559h-9.747a9.939,9.939,0,0,0-9.939,9.939v2a9.939,9.939,0,0,0,9.939,9.939h273.222a9.938,9.938,0,0,0,9.938-9.939v-2a9.938,9.938,0,0,0-9.938-9.939h-9.747V304.073Z" transform="translate(9.07 -31.2)"/><circle class="b" cx="28.982" cy="28.982" r="28.982" transform="translate(1453.535 450.503)"/><rect class="c" width="256" height="155.984" transform="translate(1352.94 272.456)"/><g transform="translate(1170.273 -136.133)"><g transform="translate(182.561 408.633)"><rect class="d" width="256.94" height="156.285"/><rect class="e" width="55.375" height="156.285"/><rect class="e" width="55.375" height="156.285" transform="translate(201.565)"/><rect class="f" width="7.752" height="156.285" transform="translate(55.375)"/><rect class="f" width="7.752" height="156.285" transform="translate(198.242)"/></g></g></g></svg>