<svg xmlns="http://www.w3.org/2000/svg" width="294.099" height="263.467" viewBox="0 0 294.099 263.467"><defs><style>.a,.b{stroke:#000;stroke-miterlimit:10;}.b{fill:#f0f0f0;stroke-width:11px;}.c{fill:gray;}.d{fill:#c42417;}.e{fill:#28448a;}.f{fill:#fff;}</style></defs><g transform="translate(-1334.373 -250.5)"><path class="a" d="M1608.964,304.073a9.938,9.938,0,0,0,9.938-9.939v-2a9.937,9.937,0,0,0-9.938-9.938H1335.742a9.938,9.938,0,0,0-9.939,9.938v2a9.939,9.939,0,0,0,9.939,9.939h9.747V461.559h-9.747a9.939,9.939,0,0,0-9.939,9.939v2a9.939,9.939,0,0,0,9.939,9.939h273.222a9.938,9.938,0,0,0,9.938-9.939v-2a9.938,9.938,0,0,0-9.938-9.939h-9.747V304.073Z" transform="translate(9.07 -31.2)"/><circle class="b" cx="28.982" cy="28.982" r="28.982" transform="translate(1453.535 450.503)"/><rect class="c" width="256" height="155.984" transform="translate(1352.94 272.456)"/><g transform="translate(0 -0.495)"><rect class="d" width="255.245" height="157.995" transform="translate(1353.509 272.633)"/><rect class="e" width="124.101" height="157.995" transform="translate(1425.033 272.633)"/><rect class="f" width="21.398" height="157.995" transform="translate(1476.385 272.633)"/><rect class="d" width="8.873" height="157.995" transform="translate(1482.648 272.633)"/></g></g></svg>