<svg xmlns="http://www.w3.org/2000/svg" width="213.018" height="193.789" viewBox="0 0 213.018 193.789"><defs><style>.a{fill:none;stroke-miterlimit:10;}.b,.c{stroke:none;}.c{fill:#837ab3;}</style></defs><g class="a" transform="translate(-363.904 -419.157)"><path class="b" d="M556.944,546.6h-5.583V446.113h5.583a6.978,6.978,0,1,0,0-13.956H383.882a6.978,6.978,0,1,0,0,13.956h5.583V546.6h-5.583a6.978,6.978,0,0,0,0,13.957h68.845a23.993,23.993,0,1,0,36.767,0h67.45a6.978,6.978,0,0,0,0-13.957Zm-85.833,42.345A12.993,12.993,0,1,1,484.1,575.953,13.008,13.008,0,0,1,471.111,588.946Z"/><path class="c" d="M 471.1109924316406 599.9459838867188 C 484.3410034179688 599.9459838867188 495.1029968261719 589.1820068359375 495.1029968261719 575.9530029296875 C 495.1029968261719 570.0969848632812 492.9920043945312 564.7269897460938 489.4939880371094 560.5579833984375 L 556.9439697265625 560.5579833984375 C 560.7979736328125 560.5579833984375 563.9219970703125 557.4329833984375 563.9219970703125 553.5789794921875 C 563.9219970703125 549.7249755859375 560.7979736328125 546.6010131835938 556.9439697265625 546.6010131835938 L 551.3610229492188 546.6010131835938 L 551.3610229492188 446.1130065917969 L 556.9439697265625 446.1130065917969 C 560.7979736328125 446.1130065917969 563.9219970703125 442.989013671875 563.9219970703125 439.135009765625 C 563.9219970703125 435.281005859375 560.7979736328125 432.1570129394531 556.9439697265625 432.1570129394531 L 383.8819885253906 432.1570129394531 C 380.0279846191406 432.1570129394531 376.9039916992188 435.281005859375 376.9039916992188 439.135009765625 C 376.9039916992188 442.989013671875 380.0279846191406 446.1130065917969 383.8819885253906 446.1130065917969 L 389.4649963378906 446.1130065917969 L 389.4649963378906 546.6010131835938 L 383.8819885253906 546.6010131835938 C 380.0279846191406 546.6010131835938 376.9039916992188 549.7249755859375 376.9039916992188 553.5789794921875 C 376.9039916992188 557.4329833984375 380.0279846191406 560.5579833984375 383.8819885253906 560.5579833984375 L 452.7269897460938 560.5579833984375 C 449.22900390625 564.7269897460938 447.1179809570312 570.0969848632812 447.1179809570312 575.9530029296875 C 447.1179809570312 589.1820068359375 457.8819885253906 599.9459838867188 471.1109924316406 599.9459838867188 M 471.1109924316406 562.9600219726562 C 478.2749938964844 562.9600219726562 484.1029968261719 568.7880249023438 484.1029968261719 575.9530029296875 C 484.1029968261719 583.1170043945312 478.2749938964844 588.9459838867188 471.1109924316406 588.9459838867188 C 463.9469909667969 588.9459838867188 458.1179809570312 583.1170043945312 458.1179809570312 575.9530029296875 C 458.1179809570312 568.7880249023438 463.9469909667969 562.9600219726562 471.1109924316406 562.9600219726562 M 471.1109924316406 612.9459838867188 C 450.7129821777344 612.9459838867188 434.1179809570312 596.3510131835938 434.1179809570312 575.9530029296875 C 434.1179809570312 575.1520385742188 434.1441955566406 574.3536987304688 434.1961975097656 573.5579833984375 L 383.8819885253906 573.5579833984375 C 372.8661193847656 573.5579833984375 363.9039916992188 564.5953979492188 363.9039916992188 553.5789794921875 C 363.9039916992188 545.1825561523438 369.11083984375 537.9793090820312 376.4649963378906 535.0283203125 L 376.4649963378906 457.6856689453125 C 369.11083984375 454.7347106933594 363.9039916992188 447.5314025878906 363.9039916992188 439.135009765625 C 363.9039916992188 428.1191101074219 372.8661193847656 419.1570129394531 383.8819885253906 419.1570129394531 L 556.9439697265625 419.1570129394531 C 567.9598999023438 419.1570129394531 576.9219970703125 428.1191101074219 576.9219970703125 439.135009765625 C 576.9219970703125 447.5314025878906 571.7152099609375 454.7346801757812 564.3610229492188 457.6856689453125 L 564.3610229492188 535.0283813476562 C 571.7152099609375 537.9793090820312 576.9219970703125 545.1825561523438 576.9219970703125 553.5789794921875 C 576.9219970703125 564.5953979492188 567.9598999023438 573.5579833984375 556.9439697265625 573.5579833984375 L 508.0247802734375 573.5579833984375 C 508.0768127441406 574.3536987304688 508.1029968261719 575.1520385742188 508.1029968261719 575.9530029296875 C 508.1029968261719 596.3510131835938 491.5084533691406 612.9459838867188 471.1109924316406 612.9459838867188 Z"/></g></svg>