<svg xmlns="http://www.w3.org/2000/svg" width="33.689" height="33.943" viewBox="0 0 33.689 33.943"><defs><style>.a{fill:#fff;}</style></defs><g transform="translate(538.134 6916.118)"><path class="a" d="M-524.134-6888.119a14.016,14.016,0,0,1-14-14,14.016,14.016,0,0,1,14-14,14.015,14.015,0,0,1,14,14A14.016,14.016,0,0,1-524.134-6888.119Zm0-24a10.011,10.011,0,0,0-10,10,10.013,10.013,0,0,0,10,10,10.011,10.011,0,0,0,10-10A10.01,10.01,0,0,0-524.134-6912.118Z"/><rect class="a" width="4" height="13.789" transform="translate(-517.023 -6891.925) rotate(-45)"/></g></svg>