<svg xmlns="http://www.w3.org/2000/svg" width="261.55" height="301.673" viewBox="0 0 261.55 301.673"><defs><style>.a{fill:none;stroke-miterlimit:10;}.b,.c{stroke:none;}</style></defs><g transform="translate(-2880.575 -12274.163)"><g class="a" transform="translate(1920.425 11957.663)"><path class="b" d="M1128.507,401.949l92.9-10.285-55.063,75.526L1221.7,542.5l-92.939-9.923-37.542,85.6-37.876-85.449-92.9,10.285,55.063-75.526L960.15,392.173l92.939,9.923,37.543-85.6Z"/><path class="c" d="M 1090.670166015625 336.3291015625 L 1060.415161132812 405.3093872070312 L 1058.062866210938 410.6725463867188 L 1052.239501953125 410.05078125 L 977.341796875 402.0538940429688 L 1021.953002929688 462.7454833984375 L 1025.421508789062 467.4643249511719 L 1021.971435546875 472.1965637207031 L 977.5970458984375 533.0615234375 L 1052.463256835938 524.7730712890625 L 1058.284057617188 524.128662109375 L 1060.6572265625 529.482666015625 L 1091.180541992188 598.3443603515625 L 1121.435424804688 529.3641357421875 L 1123.787719726562 524.0009765625 L 1129.611083984375 524.6227416992188 L 1204.5087890625 532.61962890625 L 1159.897705078125 471.9277954101562 L 1156.429321289062 467.2090148925781 L 1159.87939453125 462.4767761230469 L 1204.25341796875 401.6119384765625 L 1129.387573242188 409.9005126953125 L 1123.566772460938 410.5449829101562 L 1121.193603515625 405.19091796875 L 1090.670166015625 336.3291015625 M 1090.631591796875 316.5001220703125 L 1128.50732421875 401.9490966796875 L 1221.406494140625 391.6640014648438 L 1166.34375 467.1897277832031 L 1221.700439453125 542.5006103515625 L 1128.76171875 532.5775146484375 L 1091.21923828125 618.17333984375 L 1053.343505859375 532.7244873046875 L 960.444091796875 543.0093994140625 L 1015.507080078125 467.4836120605469 L 960.150146484375 392.1728515625 L 1053.0888671875 402.0960083007812 L 1090.631591796875 316.5001220703125 Z"/></g><g class="a" transform="translate(1957.101 11999.967)"><path class="b" d="M1081.291,377.984l66.845-7.4-39.62,54.344,39.832,54.189-66.874-7.14-27.013,61.59-27.253-61.484-66.845,7.4,39.62-54.344L960.15,370.95l66.873,7.14,27.014-61.59Z"/><path class="c" d="M 1054.046997070312 321.4573974609375 L 1028.855224609375 378.8934631347656 L 1028.267211914062 380.2342529296875 L 1026.811401367188 380.0788269042969 L 964.4481201171875 373.4201965332031 L 1001.593383789062 423.9548034667969 L 1002.460571289062 425.1344909667969 L 1001.598022460938 426.3175964355469 L 964.64990234375 476.9964599609375 L 1026.98681640625 470.0951538085938 L 1028.442016601562 469.9340515136719 L 1029.035400390625 471.2725219726562 L 1054.450439453125 528.60986328125 L 1079.641967773438 471.1738891601562 L 1080.22998046875 469.8330993652344 L 1081.685791015625 469.988525390625 L 1144.049072265625 476.6470947265625 L 1106.904052734375 426.1123657226562 L 1106.036865234375 424.9326477050781 L 1106.8994140625 423.7496337890625 L 1143.847290039062 373.07080078125 L 1081.510620117188 379.9722290039062 L 1080.055419921875 380.1333618164062 L 1079.462158203125 378.7948608398438 L 1054.046997070312 321.4573974609375 M 1054.037353515625 316.5001220703125 L 1081.29052734375 377.984375 L 1148.135498046875 370.5838317871094 L 1108.515502929688 424.9278564453125 L 1148.347045898438 479.1173400878906 L 1081.473510742188 471.9772338867188 L 1054.460083007812 533.567138671875 L 1027.206909179688 472.0830078125 L 960.3616943359375 479.4833984375 L 999.98193359375 425.1393432617188 L 960.150146484375 370.949951171875 L 1027.023681640625 378.0901184082031 L 1054.037353515625 316.5001220703125 Z"/></g></g></svg>