<svg xmlns="http://www.w3.org/2000/svg" xmlns:xlink="http://www.w3.org/1999/xlink" width="440.635" height="440.635" viewBox="0 0 440.635 440.635"><defs><style>.a,.g{fill:none;}.b{clip-path:url(#a);}.c{fill:#e8e8e6;}.d{fill:#fff;}.e{fill:#28448a;}.f{fill:#c42417;}.g{stroke:#000;stroke-miterlimit:10;stroke-width:11px;}</style><clipPath id="a"><circle class="a" cx="220.318" cy="220.318" r="220.318" transform="translate(67.239 -7664.341)"/></clipPath></defs><g transform="translate(-67.239 7664.341)"><g class="b"><circle class="c" cx="111.804" cy="111.804" r="111.804" transform="translate(173.316 -7510.395)"/><path d="M285.809-7281.632a116.816,116.816,0,0,1-116.683-116.683A116.816,116.816,0,0,1,285.809-7515a116.816,116.816,0,0,1,116.684,116.684A116.816,116.816,0,0,1,285.809-7281.632Zm0-225.984a109.424,109.424,0,0,0-109.3,109.3,109.424,109.424,0,0,0,109.3,109.3,109.424,109.424,0,0,0,109.3-109.3A109.425,109.425,0,0,0,285.809-7507.616Z"/><path d="M285.809-7305.558a92.862,92.862,0,0,1-92.756-92.757,92.862,92.862,0,0,1,92.756-92.757,92.862,92.862,0,0,1,92.757,92.757A92.862,92.862,0,0,1,285.809-7305.558Zm0-184.591a91.938,91.938,0,0,0-91.833,91.834,91.938,91.938,0,0,0,91.833,91.834,91.939,91.939,0,0,0,91.834-91.834A91.938,91.938,0,0,0,285.809-7490.149Z"/><rect class="d" width="234.3" height="164.616" transform="translate(167.221 -7740.885)"/><rect class="e" width="82.813" height="164.616" transform="translate(167.221 -7740.885)"/><rect class="f" width="80.793" height="164.616" transform="translate(320.727 -7740.885)"/><rect width="270.656" height="20.198" rx="8.261" transform="translate(149.042 -7751.994)"/><rect width="270.656" height="20.198" rx="8.261" transform="translate(149.042 -7586.368)"/><circle class="g" cx="26.749" cy="26.749" r="26.749" transform="translate(258.728 -7567.673)"/><path d="M246.9-7388.931a20.347,20.347,0,0,1-1.817-1.384c-.357-.338-.846-.857-.8-1.245.3-2.794.6-5.6,1.148-8.352.394-1.994.08-3.248-2.033-3.958-2.851-.958-3.467-2.689-1.607-5.076,2.186-2.807,4.79-5.286,7.054-8.038a4.67,4.67,0,0,0,1.1-3.114,18.446,18.446,0,0,1,3.972-14.194c1.538-1.963,2.325-3.91,1.441-6.559-.889-2.666.307-5.144,2.093-7.184a15.588,15.588,0,0,1,9.521-5.351,6.046,6.046,0,0,0,4.819-3.139c1.385-2.546,2.871-5.045,4.091-7.667.431-.924-.006-2.228.343-3.221.33-.939,1.1-2.327,1.8-2.409a9.058,9.058,0,0,1,4.832.684c.6.293.874,2.478.427,3.364-.505,1-1.9,1.7-3.06,2.2-3.585,1.538-4.6,7.061-1.66,9.656,1.025-.772,1.975-1.992,3.105-2.192,1.045-.185,2.283.724,3.522,1.184.9-.909.778-1.663-.627-2.157-.975-.343-2.28-.453-2.813-1.147a4.078,4.078,0,0,1-.39-3.05c.09-.4,1.544-.821,2.248-.663a16.4,16.4,0,0,1,3.359,1.61,14.514,14.514,0,0,1,.263-3.942c.4-1.134,1.312-2.719,2.221-2.884a5.716,5.716,0,0,1,3.894,1.283,2.833,2.833,0,0,1,.53,3.848c-.427.767-.745,1.6-1.251,2.7.8-.232,1.421-.639,1.781-.474a7.364,7.364,0,0,1,2.8,1.85,2.4,2.4,0,0,1-.423,2.339,4.438,4.438,0,0,1-2.969.718c-1.05-.141-2-.842-2.3,1a5.515,5.515,0,0,0,1.472.222c1.858-.237,2.769.656,3.091,2.382.194,1.034.6,2.089,1.876,1.376,2.115-1.182,3.5-.367,4.748,1.318a6.432,6.432,0,0,0,.944.86l.545-.256a16.7,16.7,0,0,0-.794-2.153,6.382,6.382,0,0,0-1.052-1.144c-.981-1.085-1.252-2.465-.127-3.344,1.2-.935,2.54-.465,3.392.921.477.777.982,1.537,1.735,2.71.849-3.4,2.442-5.47,5.633-5.188a3.618,3.618,0,0,1,2.572,1.977c.922,2.772-.79,4.577-3.256,6.1,2.09.556,3.51,1.556,2.917,3.648-.654,2.306-2.6,2.028-4.527,1.713.177,2.243.207,4.352,2.961,5.127.63.178.941,1.378,1.476,2.045a6.584,6.584,0,0,0,1.144.921,4.127,4.127,0,0,0,.288-1.593c-.171-.7-.764-1.294-.95-1.994-.372-1.406-.247-2.761,1.45-3.21,1.538-.406,2.356.407,2.7,1.885.21.9.561,1.773,1.014,3.166,2.006-3.221,4.553-4.336,7.569-2.766.774.4,1.287,2.164,1.184,3.229-.3,3.1-3.088,3.108-5.6,3.756.6.4,1.2.58,1.374.956.465.982,1.138,2.116.975,3.06a2.837,2.837,0,0,1-2.221,1.616c-.865.006-1.782-.858-2.59-1.46a15.2,15.2,0,0,1-1.663-1.679l-.515.506c.4.508.8,1.013,1.186,1.524.764,1,1.019,2.016-.052,2.96-1.25,1.1-1.009,2.362-.448,3.66.81,1.875,1.76,2.161,3.469.968a5.625,5.625,0,0,0,2.825-4.223,4.873,4.873,0,0,1,7.231-3.365,4.3,4.3,0,0,1,1.421,3.387c-.085,1.089-1.045,2.763-1.946,3.015-3.018.844-5.138,2.786-7.455,4.667-1.752,1.421-4.037,2.167-6.022,3.321-3.215,1.866-3.448,2.491-2.611,6.135.749,3.26,1.62,6.489.823,9.9a9.6,9.6,0,0,1-7.8,7.643c-2.243.515-4.543.8-6.768,1.376-2.635.681-3.362,1.8-3.3,4.517a23.728,23.728,0,0,0,4.886,13.419c2.379,3.323,5.136,6.379,7.465,9.734a29.119,29.119,0,0,1,3.827,7.2c.94,2.817.016,4.575-2.694,5.834a53.075,53.075,0,0,1-8.53,3.168,284.548,284.548,0,0,0-41.287,14.792,5.336,5.336,0,0,1-1.647.652c-.834.055-1.947.153-2.453-.306a2.75,2.75,0,0,1-.446-2.377,35.015,35.015,0,0,1,2.01-4.7c2.607-5.5,5.542-10.871,7.789-16.514,3-7.536-.28-19.175-6.8-23.989-2.343-1.729-5.549-2.332-8.413-3.3-1.752-.591-3.613-.849-5.4-1.338-2.749-.749-3.406-2.1-2.391-4.811C246.069-7387.124,246.486-7387.983,246.9-7388.931Z"/></g></g></svg>