<svg xmlns="http://www.w3.org/2000/svg" width="590.212" height="676.928" viewBox="0 0 590.212 676.928"><defs><style>.a{fill:#333;opacity:0.05;}</style></defs><g transform="translate(0 19)"><path class="a" d="M5032.749-3028.735a483.988,483.988,0,0,0,40.594-38.8c-12.328-4.836-21.82-9.224-33.669-14.925-1.164,18.835-2.836,34.714-6.925,53.728" transform="translate(-4650.589 3436.082)"/><path class="a" d="M4980.824-3435.271c14.356,30.655,21.042,50.653,30.982,84.412,38.714-9.193,75.188-14.118,116.739-14.118,5.91,0-2.507-.209,3.343,0-44.445-41.49-79.727-57.429-151.064-70.294" transform="translate(-4650.589 3436.082)"/><path class="a" d="M5212.653-3259.342c-21.313,70.921-49.55,122.44-97.488,179.362,42,14.119,73.519,22.984,119.635,25.551a399.035,399.035,0,0,0,6-69.787c0-57.638-8.12-90.621-28.148-135.126" transform="translate(-4650.589 3436.082)"/><path class="a" d="M5019.568-3115.226c.179-6.626.387-13.223.387-19.909a715.857,715.857,0,0,0-24.774-187.6,503.666,503.666,0,0,0-141.215,62.743,507.424,507.424,0,0,0,165.6,144.766" transform="translate(-4650.589 3436.082)"/><path class="a" d="M4799.539-3306.3a687.442,687.442,0,0,0-18,68.712c13.134-11.193,26.715-21.909,40.922-31.789-8.178-11.94-15.759-24.3-22.922-36.923" transform="translate(-4650.589 3436.082)"/><path class="a" d="M5170.1-3341.754c-11.672-.806-23.432-1.373-35.312-1.373a506.3,506.3,0,0,0-116.142,13.521,741.047,741.047,0,0,1,24.983,191.571c0,9.462-.239,18.864-.567,28.206a513.062,513.062,0,0,0,47.4,20.805,502.786,502.786,0,0,0,109.127-213.718,280.39,280.39,0,0,0-29.49-39.012" transform="translate(-4650.589 3436.082)"/><path class="a" d="M5030.037-2999.164c-13.553,78.353-39.283,151.065-74.593,214.942,148.736-23.849,248.969-113.426,278.878-245.418a520.877,520.877,0,0,1-141.215-28.535,522.332,522.332,0,0,1-63.07,59.011" transform="translate(-4650.589 3436.082)"/><path class="a" d="M4792.843-2895.32c10.953,41.311,19.849,67.429,37.519,104.113h38.118c21.281,0,41.31-.657,62.622-1.94,32.267-61.906,54.773-117.217,69.727-191.659a520.107,520.107,0,0,1-207.986,89.486" transform="translate(-4650.589 3436.082)"/><path class="a" d="M4832.29-3247.9a508.629,508.629,0,0,0-55.849,44.863,727.478,727.478,0,0,0-9.73,118.858,718.887,718.887,0,0,0,19.55,167.095c80.653-15.1,157.244-48.953,219.509-97.457,5.821-28.028,8.746-46.236,11.282-74.5-70.86-37.192-137.781-94.74-184.762-158.856" transform="translate(-4650.589 3436.082)"/><path class="a" d="M4872.1-3455.082a627.1,627.1,0,0,0-59.848,124.052,500.043,500.043,0,0,0,29.729,49.609,520.853,520.853,0,0,1,146.528-65.25,651.614,651.614,0,0,0-40.864-103.844,515.862,515.862,0,0,0-68.919-4.567Z" transform="translate(-4650.589 3436.082)"/><path class="a" d="M4840.79-3448.041H4763.3c8.118,36.208,17.88,61.25,33.311,94.025,13.849-36.714,24.924-61.788,44.177-94.025" transform="translate(-4650.589 3436.082)"/><path class="a" d="M4687.9-2886.3c-12.567,0-24.955-.6-37.311-1.462v88.8c0,16.059,5.7,20.8,20.835,20.8h138.736a684.188,684.188,0,0,1-40.8-114.5,527.149,527.149,0,0,1-81.456,6.357" transform="translate(-4650.589 3436.082)"/><path class="a" d="M4749.979-3184.58c-43.131,47.7-64.414,78-90.891,128.948v145.722c12.329.9,13.761,1.463,26.328,1.463a508.3,508.3,0,0,0,77.338-6,744.541,744.541,0,0,1-19.552-169.81,757.858,757.858,0,0,1,6.777-100.323" transform="translate(-4650.589 3436.082)"/><path class="a" d="M4783.627-3328.937a515.024,515.024,0,0,1-45.162-126.142h-67.041c-15.134,0-20.835,4.717-20.835,20.805v352.008a524.143,524.143,0,0,1,106.144-140.23,712.81,712.81,0,0,1,26.894-106.441" transform="translate(-4650.589 3436.082)"/></g></svg>